<svg xmlns="http://www.w3.org/2000/svg" width="1024" height="220" viewBox="0 0 1024 220" version="1.1"><path d="M 0 25.003 L 0 29.002 512.250 28.751 L 1024.500 28.500 1024.795 24.500 L 1025.091 20.500 512.545 20.752 L 0 21.004 0 25.003 M 0 195.003 L 0 199.002 512.250 198.751 L 1024.500 198.500 1024.795 194.500 L 1025.091 190.500 512.545 190.752 L 0 191.004 0 195.003" stroke="none" fill="#ffffff" fill-rule="evenodd"/><path d="M 0 10.501 L 0 21.002 512.250 20.751 L 1024.500 20.500 1024.785 10.250 L 1025.070 0 512.535 0 L 0 0 0 10.501 M 0.370 11 C 0.370 16.775, 0.535 19.138, 0.737 16.250 C 0.939 13.363, 0.939 8.638, 0.737 5.750 C 0.535 2.863, 0.370 5.225, 0.370 11 M 0 110.003 L 0 191.002 512.250 190.751 L 1024.500 190.500 1024.756 109.500 L 1025.012 28.500 512.506 28.752 L 0 29.004 0 110.003 M 0.477 110 C 0.477 154.825, 0.600 173.163, 0.750 150.750 C 0.900 128.338, 0.900 91.663, 0.750 69.250 C 0.600 46.838, 0.477 65.175, 0.477 110 M 0 209.503 L 0 220.002 512.250 219.751 L 1024.500 219.500 1024.781 209 L 1025.063 198.500 512.531 198.752 L 0 199.004 0 209.503 M 0.374 209.500 C 0.376 215.550, 0.541 217.896, 0.740 214.713 C 0.939 211.531, 0.937 206.581, 0.736 203.713 C 0.535 200.846, 0.372 203.450, 0.374 209.500" stroke="none" fill="#1d3740" fill-rule="evenodd"/></svg>