<svg xmlns="http://www.w3.org/2000/svg" width="292" height="300" viewBox="0 0 292 300" version="1.1"><path d="M 219.411 56.891 C 211.973 61.427, 209.722 69.751, 214.024 76.808 C 215.917 79.913, 222.585 83.927, 225.934 83.978 C 229.005 84.025, 236.024 79.697, 237.962 76.561 C 245.294 64.698, 231.170 49.721, 219.411 56.891 M 130.669 71.528 C 94.158 78.434, 67 111.693, 67 149.500 C 67 180.113, 84.779 208.085, 112.500 221.085 C 124.885 226.894, 131.624 228.356, 146 228.356 C 160.981 228.356, 167.545 226.840, 180.850 220.305 C 188.222 216.683, 192.082 213.921, 199.099 207.243 C 217.909 189.343, 225.896 169.474, 224.698 143.566 C 224.042 129.389, 222.375 122.570, 216.737 111 C 211.032 99.294, 198.225 86.344, 186.224 80.146 C 170.368 71.957, 147.312 68.381, 130.669 71.528 M 132.265 100.471 C 110.132 106.729, 95.815 125.987, 95.815 149.500 C 95.815 160.602, 98.347 169.296, 104.081 177.883 C 121.468 203.921, 159.611 207.582, 181.544 185.319 C 191.402 175.312, 196.219 162.738, 196.162 147.155 C 196.077 123.649, 184.921 108.202, 163.099 101.375 C 156.119 99.190, 138.609 98.677, 132.265 100.471" stroke="none" fill="#ffffff" fill-rule="evenodd"/><path d="M 66.493 1.933 C 49.354 6.466, 38.044 12.890, 25.940 24.962 C 15.944 34.933, 10.791 42.418, 6.294 53.500 C -0.239 69.600, -0.104 67.389, 0.213 153 L 0.500 230.500 3.792 240 C 8.596 253.864, 14.929 263.929, 25.500 274.500 C 36.071 285.071, 46.136 291.404, 60 296.208 L 69.500 299.500 146 299.500 L 222.500 299.500 232 296.208 C 237.225 294.398, 245.090 290.798, 249.478 288.208 C 259.788 282.124, 273.122 268.995, 279.492 258.656 C 284.455 250.600, 290.975 233.643, 290.991 228.750 C 290.996 227.238, 291.450 226, 292 226 C 292.658 226, 292.995 199.594, 292.985 148.750 C 292.975 98.506, 292.630 72.024, 292 73 C 291.255 74.153, 291.025 73.806, 291.006 71.500 C 290.965 66.357, 284.547 49.550, 279.492 41.344 C 273.122 31.005, 259.788 17.876, 249.478 11.792 C 245.090 9.202, 237.225 5.602, 232 3.792 L 222.500 0.500 148 0.290 C 78.258 0.093, 73.053 0.197, 66.493 1.933 M 219.411 56.891 C 211.973 61.427, 209.722 69.751, 214.024 76.808 C 215.917 79.913, 222.585 83.927, 225.934 83.978 C 229.005 84.025, 236.024 79.697, 237.962 76.561 C 245.294 64.698, 231.170 49.721, 219.411 56.891 M 130.669 71.528 C 94.158 78.434, 67 111.693, 67 149.500 C 67 180.113, 84.779 208.085, 112.500 221.085 C 124.885 226.894, 131.624 228.356, 146 228.356 C 160.981 228.356, 167.545 226.840, 180.850 220.305 C 188.222 216.683, 192.082 213.921, 199.099 207.243 C 217.909 189.343, 225.896 169.474, 224.698 143.566 C 224.042 129.389, 222.375 122.570, 216.737 111 C 211.032 99.294, 198.225 86.344, 186.224 80.146 C 170.368 71.957, 147.312 68.381, 130.669 71.528 M 0.476 150 C 0.476 192.625, 0.599 210.063, 0.750 188.750 C 0.900 167.438, 0.900 132.563, 0.750 111.250 C 0.599 89.938, 0.476 107.375, 0.476 150 M 132.265 100.471 C 110.132 106.729, 95.815 125.987, 95.815 149.500 C 95.815 160.602, 98.347 169.296, 104.081 177.883 C 121.468 203.921, 159.611 207.582, 181.544 185.319 C 191.402 175.312, 196.219 162.738, 196.162 147.155 C 196.077 123.649, 184.921 108.202, 163.099 101.375 C 156.119 99.190, 138.609 98.677, 132.265 100.471" stroke="none" fill="#000000" fill-rule="evenodd"/></svg>