<svg xmlns="http://www.w3.org/2000/svg" width="1024" height="220" viewBox="0 0 1024 220" version="1.1"><path d="M -0 25.003 L -0 30.002 512.250 29.751 L 1024.500 29.500 1024.794 24.500 L 1025.087 19.500 512.544 19.752 L 0 20.004 -0 25.003 M 128.870 63.968 C 125.984 66.377, 125.502 67.406, 125.512 71.140 C 125.518 73.538, 126.135 76.963, 126.883 78.750 C 129.975 86.140, 137.988 80.707, 137.996 71.215 C 138 66.899, 136.003 62.599, 133.560 61.661 C 132.833 61.383, 130.723 62.420, 128.870 63.968 M 94.559 62.904 C 94.187 63.507, 92.799 64, 91.474 64 C 90.036 64, 87.593 65.474, 85.406 67.661 C 82.167 70.900, 81.512 71.176, 79.726 70.061 C 75.142 67.198, 64.681 64, 59.900 64 C 55.647 64, 54.383 64.463, 51.923 66.923 C 48.914 69.932, 47.988 74, 50.312 74 C 51.699 74, 55.164 78.237, 56.326 81.353 C 57.478 84.444, 59.998 97.326, 59.999 100.128 C 60.001 105.988, 51.490 119.439, 48.189 118.793 C 47.364 118.632, 45.843 116.025, 44.810 113 C 41.151 102.293, 39.916 94.620, 40.212 84.441 L 40.500 74.515 43.418 74.008 C 47.134 73.361, 47.455 72.259, 45.067 68.342 C 43.262 65.381, 42.670 65.140, 35.602 64.477 C 24.013 63.391, 14.549 64.193, 12.029 66.473 C 9.021 69.196, 9.872 71.982, 14.500 74.563 C 18.566 76.830, 25.036 85.863, 26.273 91.001 C 26.604 92.375, 27.820 96.122, 28.975 99.326 C 30.130 102.530, 31.520 108.702, 32.065 113.042 C 32.609 117.382, 34.188 124.308, 35.573 128.434 C 38.524 137.220, 40.782 145.330, 42.413 153 C 43.178 156.599, 44.083 158.500, 45.031 158.500 C 47.274 158.500, 51.981 143.815, 52.983 133.689 C 53.463 128.844, 54.276 124.344, 54.789 123.689 C 55.302 123.035, 55.975 120.856, 56.283 118.847 C 56.867 115.033, 61.852 106.519, 62.892 107.559 C 63.496 108.163, 67.041 122.977, 69.458 135 C 70.752 141.436, 71.242 143.149, 73.180 148 C 78.002 160.068, 80.060 160.771, 82.865 151.309 C 85.288 143.132, 88.842 127.310, 90.571 117 C 93.297 100.747, 94.057 98.149, 98.980 88.250 C 102.751 80.667, 104.569 78, 105.966 78 C 108.153 78, 111.762 73.797, 112.665 70.200 C 113.412 67.223, 110.361 64.487, 105.286 63.584 C 103.479 63.263, 100.478 62.732, 98.618 62.404 C 96.611 62.051, 94.961 62.254, 94.559 62.904 M 504.492 65.486 C 500.041 67.443, 498.550 69.558, 494.538 79.610 C 492.441 84.864, 489.585 90.068, 487.790 91.903 L 484.678 95.086 488.421 98.919 C 491.809 102.389, 492.258 103.496, 493.164 110.626 C 493.715 114.957, 494.009 124.606, 493.817 132.068 C 493.432 147.025, 492.565 149.622, 486.991 152.505 C 483.676 154.219, 482.968 157, 485.846 157 C 486.862 157, 489.010 157.657, 490.619 158.460 C 494.056 160.175, 517.030 160.210, 516.957 158.500 C 516.934 157.950, 514.765 155.844, 512.138 153.819 C 507.777 150.459, 507.214 149.530, 505.676 143.157 C 503.067 132.350, 502.575 119.816, 504.397 110.606 C 506.314 100.914, 507.936 98.231, 512.130 97.815 C 516.351 97.395, 518.241 94.433, 515.559 92.441 C 514.491 91.649, 512.651 91, 511.469 91 C 507.756 91, 505.840 84.181, 507.975 78.565 C 509.196 75.355, 510.430 75.342, 514.183 78.500 C 521.197 84.403, 525.600 82.332, 524.612 73.595 C 523.777 66.208, 521.192 63.979, 513.576 64.082 C 510.234 64.126, 506.146 64.758, 504.492 65.486 M 880.200 65.200 C 878.175 67.225, 878.809 68.623, 884.019 73.616 C 890.154 79.496, 891.771 84.165, 889.815 90.347 C 888.547 94.353, 888.358 94.494, 884.500 94.339 C 882.300 94.251, 878.119 93.596, 875.210 92.884 C 870.499 91.731, 869.568 91.782, 866.710 93.355 C 863.116 95.333, 858.420 102.088, 856.698 107.756 C 856.053 109.880, 855.572 118.208, 855.585 127 C 855.611 143.676, 855.997 145.278, 861.589 151.924 C 864.651 155.562, 870.828 159, 874.304 159 C 875.614 159, 879.120 158.165, 882.093 157.144 C 886.108 155.766, 888.144 155.540, 890 156.264 C 891.375 156.801, 893.400 157.580, 894.500 157.995 C 895.600 158.411, 897.759 159.257, 899.297 159.875 C 903.645 161.623, 907.781 161.277, 908.965 159.066 C 910.786 155.663, 910.097 153.638, 905.882 150.008 L 901.765 146.462 901.837 111.981 C 901.913 75.168, 901.277 68.008, 897.708 65.508 C 895.046 63.644, 881.986 63.414, 880.200 65.200 M 359 65.678 C 355.371 66.266, 351.986 68.157, 350.888 70.209 C 350.131 71.623, 350.671 72.738, 353.465 75.532 C 355.409 77.476, 357 79.733, 357 80.547 C 357 81.361, 357.420 82.809, 357.934 83.764 C 360.109 87.810, 361 95.890, 361 111.578 C 361 127.850, 360.469 133.335, 357.358 149.219 C 356.526 153.465, 356.136 157.852, 356.490 158.969 C 357.226 161.288, 360.911 161.697, 363.952 159.798 C 365.465 158.853, 366.397 158.874, 368.307 159.897 C 369.644 160.612, 371.584 161.037, 372.619 160.840 C 375.203 160.349, 375.565 154.181, 373.460 146.477 C 372.562 143.190, 371.426 138.925, 370.937 137 C 370.448 135.075, 370.037 129.126, 370.024 123.781 C 369.997 112.709, 371.608 108.307, 377.621 103.028 C 383.863 97.548, 387.625 99.775, 390.550 110.681 C 393.574 121.954, 392.869 141.477, 389.083 151.315 C 386.974 156.797, 390.407 159, 401.058 159 C 406.783 159, 408.062 156.954, 405.469 151.940 C 404.172 149.431, 403.658 143.758, 402.977 124.399 C 402.066 98.535, 401.627 96.253, 396.893 92.752 C 392.143 89.238, 381.992 90.905, 376.550 96.094 C 374.935 97.634, 372.006 97.102, 371.897 95.250 C 371.840 94.287, 371.711 88.325, 371.611 82 C 371.384 67.775, 370.287 64.939, 365.089 65.136 C 363.115 65.211, 360.375 65.455, 359 65.678 M 220.073 70.635 C 218.473 72.668, 218 74.710, 218 79.578 C 218 84.963, 217.675 86.114, 215.777 87.443 C 214.555 88.299, 212.834 89, 211.952 89 C 210.164 89, 206 93.014, 206 94.738 C 206 97.004, 211.199 102, 213.557 102 L 215.936 102 215.802 124.750 C 215.688 143.932, 215.939 148.319, 217.404 152.720 C 219.559 159.198, 224.131 163.464, 227.925 162.538 C 229.341 162.193, 232.232 161.533, 234.348 161.072 C 238.860 160.088, 240.329 158.727, 241.869 154.101 C 243.528 149.114, 243.373 135, 241.659 135 C 240.847 135, 239.824 137.209, 239.064 140.607 C 235.687 155.696, 230.724 158.436, 226.765 147.398 C 223.646 138.704, 224.681 109.912, 228.316 104.250 C 228.757 103.563, 230.375 103, 231.911 103 C 235.524 103, 241.413 99.030, 241.804 96.331 C 242.177 93.761, 238.211 90.415, 233.119 89.004 C 226.556 87.185, 226.624 87.356, 225.063 68.750 C 224.922 67.069, 222.013 68.168, 220.073 70.635 M 543.989 71.250 C 542.583 73.556, 542.006 76.284, 542.004 80.641 L 542 86.783 537.750 88.475 C 532.943 90.390, 530 92.707, 530 94.578 C 530 96.991, 535.118 102, 537.584 102 L 539.989 102 539.341 121.345 C 538.780 138.114, 538.937 141.726, 540.523 148.462 C 541.903 154.319, 543.139 157.066, 545.545 159.616 C 548.663 162.922, 552.263 164.001, 553.500 162 C 553.840 161.450, 555.617 161, 557.448 161 C 564.417 161, 566.933 155.895, 566.976 141.667 C 567.006 131.941, 565.206 131.678, 562.982 141.082 C 560.991 149.499, 558.957 153.432, 556.403 153.798 C 553.634 154.196, 552.135 152.187, 550.436 145.806 C 547.777 135.817, 548.970 108.313, 552.239 104.250 C 552.792 103.563, 554.434 103, 555.888 103 C 557.342 103, 560.099 102.159, 562.016 101.131 C 566.844 98.542, 566.879 94.509, 562.102 91.290 C 560.233 90.030, 557.758 88.986, 556.602 88.968 C 552.057 88.899, 550.725 86.571, 549.910 77.272 C 549.488 72.448, 549.110 68.388, 549.071 68.250 C 549.032 68.112, 548.318 68, 547.485 68 C 546.652 68, 545.079 69.463, 543.989 71.250 M 75.240 75.211 C 74.583 76.003, 73.514 78.954, 72.864 81.769 C 71.826 86.267, 71.934 87.655, 73.752 93.194 C 74.890 96.663, 76.393 103.238, 77.092 107.808 C 77.792 112.377, 78.892 116.837, 79.537 117.720 C 82.813 122.199, 87.296 113.662, 90.155 97.500 C 92.442 84.570, 91.998 78.700, 88.562 76.449 C 85.128 74.199, 76.728 73.418, 75.240 75.211 M 937.323 88.696 C 934.634 89.220, 926 96.685, 926 98.486 C 926 99.209, 924.884 102.209, 923.520 105.151 C 919.341 114.166, 918.658 119.633, 920.427 129.887 C 923.532 147.875, 928.833 155.970, 938.920 158.125 C 941.989 158.780, 944.928 159.695, 945.450 160.158 C 947.171 161.683, 952.639 161.056, 954.378 159.135 C 956.549 156.736, 966 138.427, 966 136.620 C 966 135.864, 965.325 134.685, 964.500 134 C 962.394 132.252, 960.348 134.156, 957.560 140.460 C 954.831 146.629, 949.116 151, 943.778 151 C 938.722 151, 937.158 150.206, 935.358 146.726 C 933.399 142.938, 933.023 127.883, 934.832 125.702 C 936.219 124.031, 945.952 122.802, 956.251 122.998 C 962.670 123.120, 963.051 122.997, 964.001 120.498 C 965.863 115.599, 965.218 107.600, 962.654 103.823 C 961.364 101.921, 959.984 99.074, 959.588 97.495 C 957.944 90.945, 947.325 86.749, 937.323 88.696 M 264.500 90.877 C 255.033 96.777, 252.196 105.034, 255.186 117.987 C 256.920 125.497, 260.392 128.394, 272.060 132.068 C 279.375 134.371, 282.490 135.910, 284.932 138.430 C 288.072 141.670, 288.122 141.860, 286.904 145.925 C 285.620 150.212, 280.175 156, 277.425 156 C 276.598 156, 274.131 155.087, 271.944 153.972 C 267.948 151.933, 262.057 144.159, 262.019 140.872 C 262.009 139.977, 261.291 138.656, 260.424 137.937 C 257.941 135.876, 257.035 138.410, 257.002 147.500 C 256.986 151.900, 256.701 156.512, 256.370 157.750 C 255.594 160.643, 257.978 160.787, 260.500 158 C 262.894 155.354, 265.141 155.478, 269.595 158.500 C 272.480 160.458, 274.540 161, 279.097 161 C 284.483 161, 285.111 160.755, 287.555 157.692 C 291.570 152.660, 294 144.633, 294 136.405 C 294 129.324, 293.950 129.187, 290.060 125.673 C 285.161 121.247, 280.904 119, 277.418 119 C 269.912 119, 261.370 107.687, 264.800 102.289 C 265.844 100.647, 272.369 98, 275.373 98 C 277.214 98, 278.505 99.161, 280.655 102.750 C 282.220 105.362, 283.869 108.400, 284.319 109.500 C 285.117 111.450, 285.173 111.452, 286.527 109.616 C 288.422 107.047, 292.295 94.286, 291.547 93.077 C 291.208 92.527, 288.842 92.350, 286.129 92.671 C 282.617 93.087, 279.696 92.667, 275.340 91.121 C 268.102 88.551, 268.228 88.554, 264.500 90.877 M 585.400 91.854 C 577.693 97.493, 577.500 97.949, 577.500 110.552 L 577.500 121.890 580.924 125.423 C 582.894 127.454, 586.293 129.550, 588.924 130.355 C 591.441 131.125, 595.525 132.353, 598 133.084 C 604.358 134.963, 610 139.634, 610 143.019 C 610 146.159, 606.619 151.488, 602.859 154.272 C 600.568 155.968, 599.752 156.073, 596.697 155.065 C 591.752 153.433, 588.190 149.536, 584.828 142.083 C 582.871 137.745, 581.605 135.995, 580.920 136.680 C 579.930 137.670, 578.774 160, 579.712 160 C 579.972 160, 581.329 159.100, 582.727 158 C 586.026 155.405, 587.338 155.478, 591.785 158.500 C 594.645 160.443, 596.732 161, 601.159 161 C 606.503 161, 607.041 160.773, 609.883 157.326 C 613.439 153.012, 617 142.128, 617 135.572 C 617 131.541, 616.469 130.379, 612.813 126.413 C 608.409 121.635, 603.536 119, 599.106 119 C 593.545 119, 585.195 109.345, 586.445 104.361 C 587.216 101.293, 592.523 98.009, 596.719 98.004 C 599.531 98, 600.385 98.698, 603.469 103.519 C 605.411 106.555, 607 109.518, 607 110.103 C 607 110.688, 607.563 110.980, 608.250 110.752 C 609.557 110.318, 613.127 99.319, 613.363 95 C 613.496 92.569, 613.340 92.510, 607.716 92.845 C 604.535 93.034, 601.385 92.775, 600.716 92.270 C 599.468 91.326, 592.046 89, 590.284 89 C 589.743 89, 587.545 90.284, 585.400 91.854 M 692.896 90.331 C 687.118 92.924, 685.553 96.428, 688.071 101.133 C 688.890 102.662, 688.518 105.744, 686.497 114.196 C 682.276 131.851, 681.335 133.262, 679.129 125.250 C 678.409 122.638, 676.961 117.825, 675.910 114.556 C 673.724 107.754, 673.519 103.678, 675.130 99.057 C 676.105 96.260, 675.993 95.549, 674.314 93.869 C 672.385 91.941, 672.343 91.943, 669.683 94.035 C 664.769 97.900, 659.983 108.386, 654.522 127.250 C 652.940 132.718, 651.803 134.108, 650.558 132.093 C 650.250 131.595, 649.522 126.557, 648.942 120.899 C 647.709 108.889, 645.949 100.736, 643.615 96.222 C 642.008 93.114, 641.728 93, 635.697 93 C 629.363 93, 625 94.782, 625 97.370 C 625 98.061, 626.387 99.948, 628.082 101.563 C 631.164 104.501, 633.021 107.988, 635.499 115.500 C 636.225 117.700, 637.759 121.969, 638.909 124.986 C 640.061 128.008, 641 132.812, 641 135.683 C 641 139.321, 641.755 142.313, 643.500 145.596 C 644.875 148.182, 646 151.769, 646 153.567 C 646 165.722, 652.795 159.582, 655.480 145 C 656.594 138.955, 661.131 127.655, 662.878 126.575 C 665.967 124.666, 667.984 129.535, 672.581 150 C 674.122 156.861, 676.176 161, 678.039 161 C 678.896 161, 682.057 153.171, 684.902 144 C 686.011 140.425, 688.286 133.114, 689.959 127.753 C 691.632 122.393, 693 117.345, 693 116.537 C 693 113.544, 696.579 107.351, 701.221 102.310 C 703.849 99.455, 706 96.397, 706 95.514 C 706 94.631, 704.895 92.805, 703.545 91.455 C 700.876 88.785, 697.204 88.398, 692.896 90.331 M 794.419 91.133 C 792.724 91.593, 790.574 92.814, 789.641 93.845 C 788.026 95.629, 788.108 95.845, 791.325 98.299 C 796.410 102.177, 797.668 107.792, 796.167 119.916 C 795.515 125.187, 794.985 133.183, 794.990 137.685 C 795.002 147.249, 794.156 150.043, 790.688 151.899 C 788.008 153.334, 786.596 156.783, 787.608 159.421 C 788.465 161.653, 795.171 161.464, 799.853 159.075 C 802.357 157.798, 804.109 157.456, 805.063 158.060 C 809.726 161.010, 812.558 157.274, 808.754 153.190 C 806.539 150.812, 806.185 149.367, 805.703 140.720 C 805.358 134.541, 805.687 127.361, 806.596 121.220 C 807.387 115.874, 808.310 109.183, 808.647 106.352 C 809.343 100.497, 810.932 99.269, 819.061 98.306 C 825.702 97.520, 826.978 99.618, 827.070 111.473 C 827.108 116.438, 827.492 125.675, 827.924 132 C 828.663 142.847, 828.568 143.855, 826.247 149.751 C 824.894 153.189, 824.032 156.640, 824.331 157.420 C 824.707 158.401, 827.128 158.979, 832.187 159.298 C 836.209 159.551, 840.737 160.090, 842.250 160.496 C 844.853 161.194, 844.999 161.053, 844.988 157.867 C 844.981 155.979, 843.774 152.523, 842.239 150 C 839.540 145.561, 839.496 145.213, 839.001 124.500 L 838.500 103.500 835.507 98.906 C 829.410 89.548, 823.158 87.994, 814.820 93.762 C 809.359 97.540, 807.029 97.794, 804.407 94.898 C 801.330 91.497, 797.876 90.195, 794.419 91.133 M 181.416 93.686 C 176.464 96.184, 176.239 96.207, 172.787 94.569 C 170.481 93.475, 167.401 92.994, 163.974 93.194 C 157.325 93.580, 155.781 95.461, 158.699 99.618 C 162.117 104.488, 163.185 111.617, 162.671 126.135 C 162.287 137.005, 161.775 140.527, 159.931 145 C 158.684 148.025, 157.290 150.927, 156.832 151.450 C 155.156 153.364, 155.961 156.852, 158.250 157.598 C 162.475 158.973, 176.039 158.389, 177.667 156.762 C 179.002 155.427, 178.826 154.872, 176.084 151.748 L 173 148.236 173 127.740 C 173 111.703, 173.329 106.456, 174.513 103.622 C 176.413 99.077, 178.353 99.034, 181.241 103.473 C 185.177 109.524, 192.046 110.553, 196.099 105.698 C 199.653 101.440, 198.483 98.929, 190.290 93.232 C 188.525 92.004, 186.950 91.027, 186.790 91.061 C 186.631 91.094, 184.212 92.276, 181.416 93.686 M 334.500 91.716 C 333.400 91.982, 329.324 93.510, 325.443 95.113 C 319.339 97.633, 318.085 98.598, 316.154 102.263 C 314.927 104.593, 312.570 108.975, 310.918 112 C 308.086 117.184, 307.936 118.017, 308.305 126.500 C 308.777 137.350, 310.355 142.587, 315.028 148.805 C 319.153 154.294, 328.412 160.928, 332 160.965 C 334.468 160.991, 342.769 157.262, 345.772 154.778 C 348.122 152.835, 351.979 143.898, 351.990 140.372 C 351.996 138.652, 351.268 136.637, 350.372 135.894 C 348.956 134.719, 348.371 134.991, 345.872 137.984 C 344.293 139.876, 343 142.133, 343 143 C 343 145.679, 337.692 150.978, 334.377 151.607 C 325.187 153.350, 317.601 132.512, 320.955 114.736 C 321.631 111.156, 323.036 106.826, 324.077 105.114 C 325.794 102.290, 326.441 102, 331.018 102 C 337.177 102, 337.924 103.325, 337.231 113.022 C 336.847 118.388, 337.084 119.941, 338.505 121.362 C 343.076 125.933, 350.588 119.261, 349.727 111.394 C 349.196 106.541, 344.767 96.445, 341.768 93.253 C 339.680 91.030, 338.428 90.766, 334.500 91.716 M 438.316 92.303 C 436.565 92.961, 433.177 94.883, 430.789 96.572 C 427.372 98.989, 426.052 100.804, 424.599 105.077 C 422.800 110.370, 422.801 110.611, 424.628 114.504 C 426.034 117.500, 427.174 118.577, 429.182 118.810 C 431.660 119.096, 431.984 118.685, 433.520 113.310 C 435.871 105.084, 437.202 102.678, 440.205 101.234 C 445.876 98.508, 450.004 103.426, 449.996 112.899 C 449.991 119.412, 447.163 123.700, 442.298 124.572 C 440.209 124.947, 437.825 125.819, 437 126.510 C 436.175 127.201, 433.615 128.715, 431.311 129.873 C 425.777 132.655, 421.157 137.707, 420.377 141.831 C 419.416 146.912, 422.669 157.737, 425.768 159.767 C 430.520 162.881, 440.520 160.508, 445.405 155.106 C 448.063 152.167, 451.337 152.479, 455.415 156.060 C 458.343 158.630, 459.589 159.070, 463.198 158.810 C 467.023 158.534, 467.680 158.108, 469.169 154.934 C 472.944 146.889, 473.187 135.584, 469.481 140.441 C 468.666 141.509, 468 142.994, 468 143.741 C 468 146.093, 464.934 151.145, 463.746 150.749 C 461.655 150.052, 460.920 144.643, 460.070 123.700 C 459.236 103.152, 459.190 102.842, 456.321 98.200 C 453.865 94.224, 452.807 93.399, 449.459 92.847 C 447.281 92.488, 444.600 91.949, 443.500 91.649 C 442.400 91.350, 440.067 91.644, 438.316 92.303 M 726.500 92.981 C 724.300 94.010, 721.698 94.885, 720.719 94.926 C 718.219 95.030, 717.456 97.741, 719.341 99.824 C 720.211 100.786, 721.899 103.778, 723.091 106.473 C 725.022 110.839, 725.280 113.339, 725.456 129.436 C 725.567 139.640, 726.121 148.588, 726.729 150 C 728.456 154.013, 733.913 158.894, 738.061 160.136 C 742.436 161.447, 746.179 160.389, 751.799 156.252 C 755.149 153.786, 758 153.814, 758 156.314 C 758 157.071, 758.857 158.466, 759.904 159.413 C 761.561 160.913, 762.560 160.998, 767.596 160.067 C 775.596 158.588, 777.104 155.855, 772.350 151.449 C 770.564 149.794, 769.377 147.282, 768.708 143.746 C 767.581 137.784, 767.587 138.489, 768.468 115 C 769.081 98.642, 768.997 97.343, 767.189 95.093 C 765.678 93.212, 764.077 92.601, 759.877 92.301 C 749.356 91.547, 745.904 96.831, 752.295 103.905 C 756.707 108.789, 757.319 113.545, 756.099 133.492 L 755.182 148.484 751.879 151.242 C 747.468 154.924, 745.489 154.725, 740.899 150.134 L 737.033 146.268 737.148 122.884 C 737.302 91.539, 736.200 88.445, 726.500 92.981 M 999.144 93.802 C 993.965 96.350, 993.722 96.377, 990.823 94.713 C 987.027 92.535, 976.777 92.359, 975.047 94.443 C 974.092 95.594, 974.359 96.760, 976.361 100.193 C 979.516 105.602, 981.472 116.500, 980.516 123.341 C 980.119 126.178, 979.709 131.200, 979.603 134.500 C 979.472 138.589, 978.550 142.371, 976.706 146.374 C 973.868 152.535, 973.287 156.441, 975.047 157.529 C 976.455 158.400, 991.103 158.420, 993.828 157.554 C 996.773 156.620, 996.559 154.385, 993.250 151.535 L 990.500 149.165 990.802 127.333 C 991.115 104.672, 991.853 100, 995.121 100 C 996.155 100, 997.002 100.338, 997.005 100.750 C 997.007 101.162, 998.609 103.242, 1000.565 105.371 C 1003.723 108.810, 1004.509 109.179, 1007.605 108.677 C 1011.500 108.045, 1014.916 104.629, 1014.967 101.317 C 1014.988 99.927, 1013.457 97.895, 1010.750 95.722 C 1004.706 90.870, 1005.003 90.919, 999.144 93.802 M 125 92.738 C 122.525 92.951, 120.126 93.495, 119.668 93.945 C 118.694 94.904, 120.473 98.343, 124 102.317 C 126.492 105.125, 126.500 105.201, 126.491 125.317 C 126.482 145.440, 126.474 145.517, 123.650 151.290 C 119.548 159.674, 120.039 160.203, 131.233 159.456 C 136.330 159.116, 141.063 158.663, 141.750 158.450 C 143.563 157.888, 143.283 153.966, 141.107 149.438 C 138.319 143.635, 137.087 133.052, 137.623 119.503 C 138.377 100.426, 136.146 91.467, 130.816 92.175 C 130.092 92.271, 127.475 92.524, 125 92.738 M 872.906 98.206 C 870.670 100.020, 867.296 111.215, 866.483 119.516 C 865.709 127.408, 867.435 144.405, 869.516 149.384 C 870.269 151.185, 871.628 153.276, 872.536 154.030 C 874.960 156.041, 879.983 155.639, 884.199 153.095 C 888.917 150.248, 889.379 147.507, 888.810 125.728 C 888.405 110.214, 888.257 109.236, 885.443 103.500 C 882.642 97.789, 882.307 97.486, 878.500 97.206 C 876.281 97.042, 873.790 97.487, 872.906 98.206 M 939.214 98.563 C 934.225 102.057, 931.370 113.864, 934.397 118.482 C 936.312 121.406, 938.435 121.538, 945.438 119.170 C 951.276 117.196, 952.504 114.450, 950.899 106.963 C 949.330 99.648, 943.573 95.509, 939.214 98.563 M 440 130.752 C 433.334 134.082, 430.563 145.362, 435.314 149.826 C 438.553 152.868, 441.616 152.544, 445.039 148.796 C 451.040 142.226, 452.712 134.712, 449 131 C 446.544 128.544, 444.530 128.488, 440 130.752 M -0 195.003 L -0 200.002 512.250 199.751 L 1024.500 199.500 1024.794 194.500 L 1025.087 189.500 512.544 189.752 L 0 190.004 -0 195.003" stroke="none" fill="#ffffff" fill-rule="evenodd"/><path d="M -0 10.001 L -0 20.002 512.250 19.751 L 1024.500 19.500 1024.786 9.750 L 1025.072 0 512.536 0 L 0 0 -0 10.001 M 0.365 10.500 C 0.368 16, 0.536 18.122, 0.738 15.216 C 0.941 12.311, 0.939 7.811, 0.734 5.216 C 0.528 2.622, 0.363 5, 0.365 10.500 M 0 110.003 L 0 190.002 512.250 189.751 L 1024.500 189.500 1024.756 109.500 L 1025.012 29.500 512.506 29.752 L 0 30.004 0 110.003 M 0.477 110 C 0.477 154.275, 0.600 172.388, 0.750 150.250 C 0.900 128.113, 0.900 91.888, 0.750 69.750 C 0.600 47.613, 0.477 65.725, 0.477 110 M 128.870 63.968 C 125.984 66.377, 125.502 67.406, 125.512 71.140 C 125.518 73.538, 126.135 76.963, 126.883 78.750 C 129.975 86.140, 137.988 80.707, 137.996 71.215 C 138 66.899, 136.003 62.599, 133.560 61.661 C 132.833 61.383, 130.723 62.420, 128.870 63.968 M 94.559 62.904 C 94.187 63.507, 92.799 64, 91.474 64 C 90.036 64, 87.593 65.474, 85.406 67.661 C 82.167 70.900, 81.512 71.176, 79.726 70.061 C 75.142 67.198, 64.681 64, 59.900 64 C 55.647 64, 54.383 64.463, 51.923 66.923 C 48.914 69.932, 47.988 74, 50.312 74 C 51.699 74, 55.164 78.237, 56.326 81.353 C 57.478 84.444, 59.998 97.326, 59.999 100.128 C 60.001 105.988, 51.490 119.439, 48.189 118.793 C 47.364 118.632, 45.843 116.025, 44.810 113 C 41.151 102.293, 39.916 94.620, 40.212 84.441 L 40.500 74.515 43.418 74.008 C 47.134 73.361, 47.455 72.259, 45.067 68.342 C 43.262 65.381, 42.670 65.140, 35.602 64.477 C 24.013 63.391, 14.549 64.193, 12.029 66.473 C 9.021 69.196, 9.872 71.982, 14.500 74.563 C 18.566 76.830, 25.036 85.863, 26.273 91.001 C 26.604 92.375, 27.820 96.122, 28.975 99.326 C 30.130 102.530, 31.520 108.702, 32.065 113.042 C 32.609 117.382, 34.188 124.308, 35.573 128.434 C 38.524 137.220, 40.782 145.330, 42.413 153 C 43.178 156.599, 44.083 158.500, 45.031 158.500 C 47.274 158.500, 51.981 143.815, 52.983 133.689 C 53.463 128.844, 54.276 124.344, 54.789 123.689 C 55.302 123.035, 55.975 120.856, 56.283 118.847 C 56.867 115.033, 61.852 106.519, 62.892 107.559 C 63.496 108.163, 67.041 122.977, 69.458 135 C 70.752 141.436, 71.242 143.149, 73.180 148 C 78.002 160.068, 80.060 160.771, 82.865 151.309 C 85.288 143.132, 88.842 127.310, 90.571 117 C 93.297 100.747, 94.057 98.149, 98.980 88.250 C 102.751 80.667, 104.569 78, 105.966 78 C 108.153 78, 111.762 73.797, 112.665 70.200 C 113.412 67.223, 110.361 64.487, 105.286 63.584 C 103.479 63.263, 100.478 62.732, 98.618 62.404 C 96.611 62.051, 94.961 62.254, 94.559 62.904 M 504.492 65.486 C 500.041 67.443, 498.550 69.558, 494.538 79.610 C 492.441 84.864, 489.585 90.068, 487.790 91.903 L 484.678 95.086 488.421 98.919 C 491.809 102.389, 492.258 103.496, 493.164 110.626 C 493.715 114.957, 494.009 124.606, 493.817 132.068 C 493.432 147.025, 492.565 149.622, 486.991 152.505 C 483.676 154.219, 482.968 157, 485.846 157 C 486.862 157, 489.010 157.657, 490.619 158.460 C 494.056 160.175, 517.030 160.210, 516.957 158.500 C 516.934 157.950, 514.765 155.844, 512.138 153.819 C 507.777 150.459, 507.214 149.530, 505.676 143.157 C 503.067 132.350, 502.575 119.816, 504.397 110.606 C 506.314 100.914, 507.936 98.231, 512.130 97.815 C 516.351 97.395, 518.241 94.433, 515.559 92.441 C 514.491 91.649, 512.651 91, 511.469 91 C 507.756 91, 505.840 84.181, 507.975 78.565 C 509.196 75.355, 510.430 75.342, 514.183 78.500 C 521.197 84.403, 525.600 82.332, 524.612 73.595 C 523.777 66.208, 521.192 63.979, 513.576 64.082 C 510.234 64.126, 506.146 64.758, 504.492 65.486 M 880.200 65.200 C 878.175 67.225, 878.809 68.623, 884.019 73.616 C 890.154 79.496, 891.771 84.165, 889.815 90.347 C 888.547 94.353, 888.358 94.494, 884.500 94.339 C 882.300 94.251, 878.119 93.596, 875.210 92.884 C 870.499 91.731, 869.568 91.782, 866.710 93.355 C 863.116 95.333, 858.420 102.088, 856.698 107.756 C 856.053 109.880, 855.572 118.208, 855.585 127 C 855.611 143.676, 855.997 145.278, 861.589 151.924 C 864.651 155.562, 870.828 159, 874.304 159 C 875.614 159, 879.120 158.165, 882.093 157.144 C 886.108 155.766, 888.144 155.540, 890 156.264 C 891.375 156.801, 893.400 157.580, 894.500 157.995 C 895.600 158.411, 897.759 159.257, 899.297 159.875 C 903.645 161.623, 907.781 161.277, 908.965 159.066 C 910.786 155.663, 910.097 153.638, 905.882 150.008 L 901.765 146.462 901.837 111.981 C 901.913 75.168, 901.277 68.008, 897.708 65.508 C 895.046 63.644, 881.986 63.414, 880.200 65.200 M 359 65.678 C 355.371 66.266, 351.986 68.157, 350.888 70.209 C 350.131 71.623, 350.671 72.738, 353.465 75.532 C 355.409 77.476, 357 79.733, 357 80.547 C 357 81.361, 357.420 82.809, 357.934 83.764 C 360.109 87.810, 361 95.890, 361 111.578 C 361 127.850, 360.469 133.335, 357.358 149.219 C 356.526 153.465, 356.136 157.852, 356.490 158.969 C 357.226 161.288, 360.911 161.697, 363.952 159.798 C 365.465 158.853, 366.397 158.874, 368.307 159.897 C 369.644 160.612, 371.584 161.037, 372.619 160.840 C 375.203 160.349, 375.565 154.181, 373.460 146.477 C 372.562 143.190, 371.426 138.925, 370.937 137 C 370.448 135.075, 370.037 129.126, 370.024 123.781 C 369.997 112.709, 371.608 108.307, 377.621 103.028 C 383.863 97.548, 387.625 99.775, 390.550 110.681 C 393.574 121.954, 392.869 141.477, 389.083 151.315 C 386.974 156.797, 390.407 159, 401.058 159 C 406.783 159, 408.062 156.954, 405.469 151.940 C 404.172 149.431, 403.658 143.758, 402.977 124.399 C 402.066 98.535, 401.627 96.253, 396.893 92.752 C 392.143 89.238, 381.992 90.905, 376.550 96.094 C 374.935 97.634, 372.006 97.102, 371.897 95.250 C 371.840 94.287, 371.711 88.325, 371.611 82 C 371.384 67.775, 370.287 64.939, 365.089 65.136 C 363.115 65.211, 360.375 65.455, 359 65.678 M 220.073 70.635 C 218.473 72.668, 218 74.710, 218 79.578 C 218 84.963, 217.675 86.114, 215.777 87.443 C 214.555 88.299, 212.834 89, 211.952 89 C 210.164 89, 206 93.014, 206 94.738 C 206 97.004, 211.199 102, 213.557 102 L 215.936 102 215.802 124.750 C 215.688 143.932, 215.939 148.319, 217.404 152.720 C 219.559 159.198, 224.131 163.464, 227.925 162.538 C 229.341 162.193, 232.232 161.533, 234.348 161.072 C 238.860 160.088, 240.329 158.727, 241.869 154.101 C 243.528 149.114, 243.373 135, 241.659 135 C 240.847 135, 239.824 137.209, 239.064 140.607 C 235.687 155.696, 230.724 158.436, 226.765 147.398 C 223.646 138.704, 224.681 109.912, 228.316 104.250 C 228.757 103.563, 230.375 103, 231.911 103 C 235.524 103, 241.413 99.030, 241.804 96.331 C 242.177 93.761, 238.211 90.415, 233.119 89.004 C 226.556 87.185, 226.624 87.356, 225.063 68.750 C 224.922 67.069, 222.013 68.168, 220.073 70.635 M 543.989 71.250 C 542.583 73.556, 542.006 76.284, 542.004 80.641 L 542 86.783 537.750 88.475 C 532.943 90.390, 530 92.707, 530 94.578 C 530 96.991, 535.118 102, 537.584 102 L 539.989 102 539.341 121.345 C 538.780 138.114, 538.937 141.726, 540.523 148.462 C 541.903 154.319, 543.139 157.066, 545.545 159.616 C 548.663 162.922, 552.263 164.001, 553.500 162 C 553.840 161.450, 555.617 161, 557.448 161 C 564.417 161, 566.933 155.895, 566.976 141.667 C 567.006 131.941, 565.206 131.678, 562.982 141.082 C 560.991 149.499, 558.957 153.432, 556.403 153.798 C 553.634 154.196, 552.135 152.187, 550.436 145.806 C 547.777 135.817, 548.970 108.313, 552.239 104.250 C 552.792 103.563, 554.434 103, 555.888 103 C 557.342 103, 560.099 102.159, 562.016 101.131 C 566.844 98.542, 566.879 94.509, 562.102 91.290 C 560.233 90.030, 557.758 88.986, 556.602 88.968 C 552.057 88.899, 550.725 86.571, 549.910 77.272 C 549.488 72.448, 549.110 68.388, 549.071 68.250 C 549.032 68.112, 548.318 68, 547.485 68 C 546.652 68, 545.079 69.463, 543.989 71.250 M 75.240 75.211 C 74.583 76.003, 73.514 78.954, 72.864 81.769 C 71.826 86.267, 71.934 87.655, 73.752 93.194 C 74.890 96.663, 76.393 103.238, 77.092 107.808 C 77.792 112.377, 78.892 116.837, 79.537 117.720 C 82.813 122.199, 87.296 113.662, 90.155 97.500 C 92.442 84.570, 91.998 78.700, 88.562 76.449 C 85.128 74.199, 76.728 73.418, 75.240 75.211 M 937.323 88.696 C 934.634 89.220, 926 96.685, 926 98.486 C 926 99.209, 924.884 102.209, 923.520 105.151 C 919.341 114.166, 918.658 119.633, 920.427 129.887 C 923.532 147.875, 928.833 155.970, 938.920 158.125 C 941.989 158.780, 944.928 159.695, 945.450 160.158 C 947.171 161.683, 952.639 161.056, 954.378 159.135 C 956.549 156.736, 966 138.427, 966 136.620 C 966 135.864, 965.325 134.685, 964.500 134 C 962.394 132.252, 960.348 134.156, 957.560 140.460 C 954.831 146.629, 949.116 151, 943.778 151 C 938.722 151, 937.158 150.206, 935.358 146.726 C 933.399 142.938, 933.023 127.883, 934.832 125.702 C 936.219 124.031, 945.952 122.802, 956.251 122.998 C 962.670 123.120, 963.051 122.997, 964.001 120.498 C 965.863 115.599, 965.218 107.600, 962.654 103.823 C 961.364 101.921, 959.984 99.074, 959.588 97.495 C 957.944 90.945, 947.325 86.749, 937.323 88.696 M 264.500 90.877 C 255.033 96.777, 252.196 105.034, 255.186 117.987 C 256.920 125.497, 260.392 128.394, 272.060 132.068 C 279.375 134.371, 282.490 135.910, 284.932 138.430 C 288.072 141.670, 288.122 141.860, 286.904 145.925 C 285.620 150.212, 280.175 156, 277.425 156 C 276.598 156, 274.131 155.087, 271.944 153.972 C 267.948 151.933, 262.057 144.159, 262.019 140.872 C 262.009 139.977, 261.291 138.656, 260.424 137.937 C 257.941 135.876, 257.035 138.410, 257.002 147.500 C 256.986 151.900, 256.701 156.512, 256.370 157.750 C 255.594 160.643, 257.978 160.787, 260.500 158 C 262.894 155.354, 265.141 155.478, 269.595 158.500 C 272.480 160.458, 274.540 161, 279.097 161 C 284.483 161, 285.111 160.755, 287.555 157.692 C 291.570 152.660, 294 144.633, 294 136.405 C 294 129.324, 293.950 129.187, 290.060 125.673 C 285.161 121.247, 280.904 119, 277.418 119 C 269.912 119, 261.370 107.687, 264.800 102.289 C 265.844 100.647, 272.369 98, 275.373 98 C 277.214 98, 278.505 99.161, 280.655 102.750 C 282.220 105.362, 283.869 108.400, 284.319 109.500 C 285.117 111.450, 285.173 111.452, 286.527 109.616 C 288.422 107.047, 292.295 94.286, 291.547 93.077 C 291.208 92.527, 288.842 92.350, 286.129 92.671 C 282.617 93.087, 279.696 92.667, 275.340 91.121 C 268.102 88.551, 268.228 88.554, 264.500 90.877 M 585.400 91.854 C 577.693 97.493, 577.500 97.949, 577.500 110.552 L 577.500 121.890 580.924 125.423 C 582.894 127.454, 586.293 129.550, 588.924 130.355 C 591.441 131.125, 595.525 132.353, 598 133.084 C 604.358 134.963, 610 139.634, 610 143.019 C 610 146.159, 606.619 151.488, 602.859 154.272 C 600.568 155.968, 599.752 156.073, 596.697 155.065 C 591.752 153.433, 588.190 149.536, 584.828 142.083 C 582.871 137.745, 581.605 135.995, 580.920 136.680 C 579.930 137.670, 578.774 160, 579.712 160 C 579.972 160, 581.329 159.100, 582.727 158 C 586.026 155.405, 587.338 155.478, 591.785 158.500 C 594.645 160.443, 596.732 161, 601.159 161 C 606.503 161, 607.041 160.773, 609.883 157.326 C 613.439 153.012, 617 142.128, 617 135.572 C 617 131.541, 616.469 130.379, 612.813 126.413 C 608.409 121.635, 603.536 119, 599.106 119 C 593.545 119, 585.195 109.345, 586.445 104.361 C 587.216 101.293, 592.523 98.009, 596.719 98.004 C 599.531 98, 600.385 98.698, 603.469 103.519 C 605.411 106.555, 607 109.518, 607 110.103 C 607 110.688, 607.563 110.980, 608.250 110.752 C 609.557 110.318, 613.127 99.319, 613.363 95 C 613.496 92.569, 613.340 92.510, 607.716 92.845 C 604.535 93.034, 601.385 92.775, 600.716 92.270 C 599.468 91.326, 592.046 89, 590.284 89 C 589.743 89, 587.545 90.284, 585.400 91.854 M 692.896 90.331 C 687.118 92.924, 685.553 96.428, 688.071 101.133 C 688.890 102.662, 688.518 105.744, 686.497 114.196 C 682.276 131.851, 681.335 133.262, 679.129 125.250 C 678.409 122.638, 676.961 117.825, 675.910 114.556 C 673.724 107.754, 673.519 103.678, 675.130 99.057 C 676.105 96.260, 675.993 95.549, 674.314 93.869 C 672.385 91.941, 672.343 91.943, 669.683 94.035 C 664.769 97.900, 659.983 108.386, 654.522 127.250 C 652.940 132.718, 651.803 134.108, 650.558 132.093 C 650.250 131.595, 649.522 126.557, 648.942 120.899 C 647.709 108.889, 645.949 100.736, 643.615 96.222 C 642.008 93.114, 641.728 93, 635.697 93 C 629.363 93, 625 94.782, 625 97.370 C 625 98.061, 626.387 99.948, 628.082 101.563 C 631.164 104.501, 633.021 107.988, 635.499 115.500 C 636.225 117.700, 637.759 121.969, 638.909 124.986 C 640.061 128.008, 641 132.812, 641 135.683 C 641 139.321, 641.755 142.313, 643.500 145.596 C 644.875 148.182, 646 151.769, 646 153.567 C 646 165.722, 652.795 159.582, 655.480 145 C 656.594 138.955, 661.131 127.655, 662.878 126.575 C 665.967 124.666, 667.984 129.535, 672.581 150 C 674.122 156.861, 676.176 161, 678.039 161 C 678.896 161, 682.057 153.171, 684.902 144 C 686.011 140.425, 688.286 133.114, 689.959 127.753 C 691.632 122.393, 693 117.345, 693 116.537 C 693 113.544, 696.579 107.351, 701.221 102.310 C 703.849 99.455, 706 96.397, 706 95.514 C 706 94.631, 704.895 92.805, 703.545 91.455 C 700.876 88.785, 697.204 88.398, 692.896 90.331 M 794.419 91.133 C 792.724 91.593, 790.574 92.814, 789.641 93.845 C 788.026 95.629, 788.108 95.845, 791.325 98.299 C 796.410 102.177, 797.668 107.792, 796.167 119.916 C 795.515 125.187, 794.985 133.183, 794.990 137.685 C 795.002 147.249, 794.156 150.043, 790.688 151.899 C 788.008 153.334, 786.596 156.783, 787.608 159.421 C 788.465 161.653, 795.171 161.464, 799.853 159.075 C 802.357 157.798, 804.109 157.456, 805.063 158.060 C 809.726 161.010, 812.558 157.274, 808.754 153.190 C 806.539 150.812, 806.185 149.367, 805.703 140.720 C 805.358 134.541, 805.687 127.361, 806.596 121.220 C 807.387 115.874, 808.310 109.183, 808.647 106.352 C 809.343 100.497, 810.932 99.269, 819.061 98.306 C 825.702 97.520, 826.978 99.618, 827.070 111.473 C 827.108 116.438, 827.492 125.675, 827.924 132 C 828.663 142.847, 828.568 143.855, 826.247 149.751 C 824.894 153.189, 824.032 156.640, 824.331 157.420 C 824.707 158.401, 827.128 158.979, 832.187 159.298 C 836.209 159.551, 840.737 160.090, 842.250 160.496 C 844.853 161.194, 844.999 161.053, 844.988 157.867 C 844.981 155.979, 843.774 152.523, 842.239 150 C 839.540 145.561, 839.496 145.213, 839.001 124.500 L 838.500 103.500 835.507 98.906 C 829.410 89.548, 823.158 87.994, 814.820 93.762 C 809.359 97.540, 807.029 97.794, 804.407 94.898 C 801.330 91.497, 797.876 90.195, 794.419 91.133 M 181.416 93.686 C 176.464 96.184, 176.239 96.207, 172.787 94.569 C 170.481 93.475, 167.401 92.994, 163.974 93.194 C 157.325 93.580, 155.781 95.461, 158.699 99.618 C 162.117 104.488, 163.185 111.617, 162.671 126.135 C 162.287 137.005, 161.775 140.527, 159.931 145 C 158.684 148.025, 157.290 150.927, 156.832 151.450 C 155.156 153.364, 155.961 156.852, 158.250 157.598 C 162.475 158.973, 176.039 158.389, 177.667 156.762 C 179.002 155.427, 178.826 154.872, 176.084 151.748 L 173 148.236 173 127.740 C 173 111.703, 173.329 106.456, 174.513 103.622 C 176.413 99.077, 178.353 99.034, 181.241 103.473 C 185.177 109.524, 192.046 110.553, 196.099 105.698 C 199.653 101.440, 198.483 98.929, 190.290 93.232 C 188.525 92.004, 186.950 91.027, 186.790 91.061 C 186.631 91.094, 184.212 92.276, 181.416 93.686 M 334.500 91.716 C 333.400 91.982, 329.324 93.510, 325.443 95.113 C 319.339 97.633, 318.085 98.598, 316.154 102.263 C 314.927 104.593, 312.570 108.975, 310.918 112 C 308.086 117.184, 307.936 118.017, 308.305 126.500 C 308.777 137.350, 310.355 142.587, 315.028 148.805 C 319.153 154.294, 328.412 160.928, 332 160.965 C 334.468 160.991, 342.769 157.262, 345.772 154.778 C 348.122 152.835, 351.979 143.898, 351.990 140.372 C 351.996 138.652, 351.268 136.637, 350.372 135.894 C 348.956 134.719, 348.371 134.991, 345.872 137.984 C 344.293 139.876, 343 142.133, 343 143 C 343 145.679, 337.692 150.978, 334.377 151.607 C 325.187 153.350, 317.601 132.512, 320.955 114.736 C 321.631 111.156, 323.036 106.826, 324.077 105.114 C 325.794 102.290, 326.441 102, 331.018 102 C 337.177 102, 337.924 103.325, 337.231 113.022 C 336.847 118.388, 337.084 119.941, 338.505 121.362 C 343.076 125.933, 350.588 119.261, 349.727 111.394 C 349.196 106.541, 344.767 96.445, 341.768 93.253 C 339.680 91.030, 338.428 90.766, 334.500 91.716 M 438.316 92.303 C 436.565 92.961, 433.177 94.883, 430.789 96.572 C 427.372 98.989, 426.052 100.804, 424.599 105.077 C 422.800 110.370, 422.801 110.611, 424.628 114.504 C 426.034 117.500, 427.174 118.577, 429.182 118.810 C 431.660 119.096, 431.984 118.685, 433.520 113.310 C 435.871 105.084, 437.202 102.678, 440.205 101.234 C 445.876 98.508, 450.004 103.426, 449.996 112.899 C 449.991 119.412, 447.163 123.700, 442.298 124.572 C 440.209 124.947, 437.825 125.819, 437 126.510 C 436.175 127.201, 433.615 128.715, 431.311 129.873 C 425.777 132.655, 421.157 137.707, 420.377 141.831 C 419.416 146.912, 422.669 157.737, 425.768 159.767 C 430.520 162.881, 440.520 160.508, 445.405 155.106 C 448.063 152.167, 451.337 152.479, 455.415 156.060 C 458.343 158.630, 459.589 159.070, 463.198 158.810 C 467.023 158.534, 467.680 158.108, 469.169 154.934 C 472.944 146.889, 473.187 135.584, 469.481 140.441 C 468.666 141.509, 468 142.994, 468 143.741 C 468 146.093, 464.934 151.145, 463.746 150.749 C 461.655 150.052, 460.920 144.643, 460.070 123.700 C 459.236 103.152, 459.190 102.842, 456.321 98.200 C 453.865 94.224, 452.807 93.399, 449.459 92.847 C 447.281 92.488, 444.600 91.949, 443.500 91.649 C 442.400 91.350, 440.067 91.644, 438.316 92.303 M 726.500 92.981 C 724.300 94.010, 721.698 94.885, 720.719 94.926 C 718.219 95.030, 717.456 97.741, 719.341 99.824 C 720.211 100.786, 721.899 103.778, 723.091 106.473 C 725.022 110.839, 725.280 113.339, 725.456 129.436 C 725.567 139.640, 726.121 148.588, 726.729 150 C 728.456 154.013, 733.913 158.894, 738.061 160.136 C 742.436 161.447, 746.179 160.389, 751.799 156.252 C 755.149 153.786, 758 153.814, 758 156.314 C 758 157.071, 758.857 158.466, 759.904 159.413 C 761.561 160.913, 762.560 160.998, 767.596 160.067 C 775.596 158.588, 777.104 155.855, 772.350 151.449 C 770.564 149.794, 769.377 147.282, 768.708 143.746 C 767.581 137.784, 767.587 138.489, 768.468 115 C 769.081 98.642, 768.997 97.343, 767.189 95.093 C 765.678 93.212, 764.077 92.601, 759.877 92.301 C 749.356 91.547, 745.904 96.831, 752.295 103.905 C 756.707 108.789, 757.319 113.545, 756.099 133.492 L 755.182 148.484 751.879 151.242 C 747.468 154.924, 745.489 154.725, 740.899 150.134 L 737.033 146.268 737.148 122.884 C 737.302 91.539, 736.200 88.445, 726.500 92.981 M 999.144 93.802 C 993.965 96.350, 993.722 96.377, 990.823 94.713 C 987.027 92.535, 976.777 92.359, 975.047 94.443 C 974.092 95.594, 974.359 96.760, 976.361 100.193 C 979.516 105.602, 981.472 116.500, 980.516 123.341 C 980.119 126.178, 979.709 131.200, 979.603 134.500 C 979.472 138.589, 978.550 142.371, 976.706 146.374 C 973.868 152.535, 973.287 156.441, 975.047 157.529 C 976.455 158.400, 991.103 158.420, 993.828 157.554 C 996.773 156.620, 996.559 154.385, 993.250 151.535 L 990.500 149.165 990.802 127.333 C 991.115 104.672, 991.853 100, 995.121 100 C 996.155 100, 997.002 100.338, 997.005 100.750 C 997.007 101.162, 998.609 103.242, 1000.565 105.371 C 1003.723 108.810, 1004.509 109.179, 1007.605 108.677 C 1011.500 108.045, 1014.916 104.629, 1014.967 101.317 C 1014.988 99.927, 1013.457 97.895, 1010.750 95.722 C 1004.706 90.870, 1005.003 90.919, 999.144 93.802 M 125 92.738 C 122.525 92.951, 120.126 93.495, 119.668 93.945 C 118.694 94.904, 120.473 98.343, 124 102.317 C 126.492 105.125, 126.500 105.201, 126.491 125.317 C 126.482 145.440, 126.474 145.517, 123.650 151.290 C 119.548 159.674, 120.039 160.203, 131.233 159.456 C 136.330 159.116, 141.063 158.663, 141.750 158.450 C 143.563 157.888, 143.283 153.966, 141.107 149.438 C 138.319 143.635, 137.087 133.052, 137.623 119.503 C 138.377 100.426, 136.146 91.467, 130.816 92.175 C 130.092 92.271, 127.475 92.524, 125 92.738 M 872.906 98.206 C 870.670 100.020, 867.296 111.215, 866.483 119.516 C 865.709 127.408, 867.435 144.405, 869.516 149.384 C 870.269 151.185, 871.628 153.276, 872.536 154.030 C 874.960 156.041, 879.983 155.639, 884.199 153.095 C 888.917 150.248, 889.379 147.507, 888.810 125.728 C 888.405 110.214, 888.257 109.236, 885.443 103.500 C 882.642 97.789, 882.307 97.486, 878.500 97.206 C 876.281 97.042, 873.790 97.487, 872.906 98.206 M 939.214 98.563 C 934.225 102.057, 931.370 113.864, 934.397 118.482 C 936.312 121.406, 938.435 121.538, 945.438 119.170 C 951.276 117.196, 952.504 114.450, 950.899 106.963 C 949.330 99.648, 943.573 95.509, 939.214 98.563 M 440 130.752 C 433.334 134.082, 430.563 145.362, 435.314 149.826 C 438.553 152.868, 441.616 152.544, 445.039 148.796 C 451.040 142.226, 452.712 134.712, 449 131 C 446.544 128.544, 444.530 128.488, 440 130.752 M -0 210.003 L -0 220.002 512.250 219.751 L 1024.500 219.500 1024.782 209.500 L 1025.064 199.500 512.532 199.752 L 0 200.004 -0 210.003 M 0.370 210 C 0.370 215.775, 0.535 218.137, 0.737 215.250 C 0.939 212.363, 0.939 207.637, 0.737 204.750 C 0.535 201.863, 0.370 204.225, 0.370 210" stroke="none" fill="#1d3740" fill-rule="evenodd"/></svg>