<svg xmlns="http://www.w3.org/2000/svg" width="1024" height="220" viewBox="0 0 1024 220" version="1.1"><path d="M -0 10.001 L -0 20.002 512.250 19.751 L 1024.500 19.500 1024.786 9.750 L 1025.072 0 512.536 0 L 0 0 -0 10.001 M 0.365 10.500 C 0.368 16, 0.536 18.122, 0.738 15.216 C 0.941 12.311, 0.939 7.811, 0.734 5.216 C 0.528 2.622, 0.363 5, 0.365 10.500 M 0 110.003 L 0 190.002 512.250 189.751 L 1024.500 189.500 1024.756 109.500 L 1025.012 29.500 512.506 29.752 L 0 30.004 0 110.003 M 0.477 110 C 0.477 154.275, 0.600 172.388, 0.750 150.250 C 0.900 128.113, 0.900 91.888, 0.750 69.750 C 0.600 47.613, 0.477 65.725, 0.477 110 M 129.881 62.503 C 126.401 64.395, 123.735 70.091, 124.637 73.712 C 125.796 78.362, 128.543 82.483, 130.697 82.802 C 131.993 82.994, 133.692 81.966, 135.367 79.975 C 137.441 77.511, 138 75.787, 138 71.858 C 138 66.930, 136.742 63.195, 134.600 61.765 C 133.157 60.802, 132.954 60.833, 129.881 62.503 M 92.865 62.656 C 91.416 62.906, 88.420 64.661, 86.206 66.555 C 83.993 68.450, 81.665 70, 81.033 70 C 80.402 70, 77.998 68.965, 75.692 67.700 C 63.726 61.134, 54.310 61.527, 49.827 68.780 L 47.703 72.217 50.926 74.739 C 54.481 77.522, 55.302 79.217, 58.069 89.500 C 60.480 98.459, 60.467 101.727, 57.996 107.123 C 55.291 113.029, 49.814 119.249, 47.948 118.533 C 45.237 117.493, 41.649 102.277, 40.380 86.434 C 39.661 77.464, 40.617 74.336, 44.238 73.820 C 47.532 73.350, 47.513 70.605, 44.188 66.884 L 41.261 63.608 28.219 63.554 C 15.703 63.502, 15.072 63.599, 12.547 65.963 C 9.563 68.758, 9.539 71.763, 12.489 73.398 C 18.401 76.675, 19.933 78.427, 23.505 86 C 27.722 94.939, 29 98.198, 29 100.012 C 29 101.090, 29.458 103.890, 30.017 106.236 C 34.560 125.282, 37.265 135.620, 39.449 142.281 C 40.852 146.560, 42 151.568, 42 153.408 C 42 155.269, 42.717 157.350, 43.615 158.095 C 44.999 159.244, 45.498 159.103, 47.115 157.107 C 48.152 155.826, 49.007 154.041, 49.015 153.139 C 49.023 152.238, 49.718 149.521, 50.561 147.102 C 51.403 144.684, 52.493 139.734, 52.983 136.102 C 54.625 123.928, 56.832 115.895, 59.778 111.365 L 62.703 106.869 63.852 111.434 C 64.483 113.945, 65.419 117.912, 65.931 120.250 C 66.443 122.588, 67.603 127.875, 68.509 132 C 70.223 139.805, 71.600 144.748, 73.244 149 C 76.737 158.034, 79.150 160.456, 81.074 156.862 C 82.779 153.677, 87.170 137.975, 87.608 133.500 C 87.975 129.748, 89.287 123.488, 92.601 109.669 C 93.371 106.462, 94 102.516, 94 100.899 C 94 99.283, 95.059 96.282, 96.354 94.230 C 97.649 92.179, 99.050 89.375, 99.468 88 C 100.671 84.043, 104.039 79, 105.478 79 C 106.201 79, 108.215 77.380, 109.953 75.400 C 115.824 68.714, 112.332 63.445, 101.500 62.644 C 98.200 62.400, 94.314 62.406, 92.865 62.656 M 504.974 64.553 C 503.584 65.291, 501.482 66.931, 500.302 68.197 C 498.262 70.386, 491 85.708, 491 87.823 C 491 88.373, 489.650 89.958, 488 91.347 C 484.218 94.529, 484.244 95.491, 488.208 99.194 C 490.965 101.769, 491.520 103.127, 492.157 108.845 C 493.090 117.234, 493.206 138.217, 492.353 144.441 C 491.793 148.527, 491.189 149.487, 487.853 151.593 C 483.513 154.333, 482.912 156.552, 486.250 157.512 C 487.488 157.868, 489.884 158.782, 491.576 159.544 C 495.155 161.155, 515.498 160.902, 517.176 159.224 C 517.863 158.537, 516.382 156.844, 512.596 153.984 C 509.518 151.661, 506.986 149.476, 506.968 149.130 C 506.951 148.783, 506.285 144, 505.488 138.500 C 504.691 133, 504.031 126.025, 504.021 123 C 503.999 116.410, 506.581 101.019, 507.935 99.665 C 508.465 99.135, 510.560 98.431, 512.590 98.101 C 517.329 97.330, 519.319 94.491, 516.559 92.441 C 515.491 91.649, 513.426 91, 511.969 91 C 509.057 91, 507 87.848, 507 83.387 C 507 77.827, 511.110 75.018, 514.055 78.566 C 514.770 79.427, 516.666 80.810, 518.268 81.639 C 520.915 83.007, 521.357 82.987, 523.091 81.418 C 524.499 80.143, 525 78.338, 525 74.535 C 525 70.112, 524.557 68.927, 521.881 66.190 C 519.068 63.312, 518.211 63.010, 513.131 63.106 C 510.034 63.164, 506.363 63.816, 504.974 64.553 M 880.241 64.986 C 878.354 68.007, 878.593 68.550, 884.338 74.295 C 887.485 77.442, 889.923 80.863, 890.276 82.628 C 890.863 85.564, 889.939 91.672, 888.573 93.882 C 887.721 95.261, 883.502 95.339, 881.039 94.021 C 880.033 93.483, 876.726 92.750, 873.689 92.393 C 866.475 91.545, 863.109 93.823, 859.017 102.321 C 853.739 113.282, 852.564 133.648, 856.604 144.128 C 858.701 149.567, 864.948 156.222, 870.164 158.574 C 874.029 160.317, 874.273 160.306, 881.188 158.079 C 886.475 156.376, 888.795 156.054, 890.380 156.803 C 897.216 160.034, 904.247 162.155, 906.362 161.624 C 907.725 161.282, 909.262 159.782, 909.950 158.121 C 911.390 154.643, 910.254 152.256, 905.992 149.810 C 902.013 147.526, 901.688 144.247, 901.801 107.500 C 901.933 64.682, 901.433 63, 888.566 63 C 882.580 63, 881.289 63.308, 880.241 64.986 M 359.500 64.711 C 356.058 65.234, 350 69.484, 350 71.377 C 350 72.078, 351.170 73.742, 352.601 75.076 C 354.031 76.409, 356.169 79.525, 357.351 82 C 359.405 86.302, 359.494 87.756, 359.367 115 C 359.247 140.597, 359.024 144.213, 357.175 150.500 C 355.337 156.748, 355.273 157.742, 356.581 159.750 C 358.090 162.068, 361.407 162.768, 362.500 161 C 363.346 159.632, 367.612 159.741, 369.932 161.190 C 371.439 162.131, 372.190 162.087, 373.524 160.980 C 375.480 159.357, 375.180 153.535, 372.494 141 C 371.611 136.875, 370.638 129.421, 370.333 124.436 C 369.822 116.103, 369.982 114.974, 372.315 110.436 C 374.839 105.526, 380.641 100, 383.272 100 C 384.031 100, 385.538 101.013, 386.621 102.250 C 390.471 106.648, 391.385 111.684, 391.383 128.500 C 391.382 141.682, 391.048 145.428, 389.487 149.768 C 387.601 155.010, 387.602 155.046, 389.656 157.100 C 392.230 159.675, 403.102 160.990, 405.482 159.015 C 407.271 157.531, 407.477 153.877, 405.864 152.264 C 405.137 151.537, 404.433 143.091, 403.910 128.814 C 403.020 104.509, 402.311 98.908, 399.603 94.789 C 397.806 92.055, 397.044 91.659, 391.391 90.526 C 387.899 89.826, 380.731 92.202, 377.436 95.152 C 376.300 96.168, 374.838 97, 374.186 97 C 372.800 97, 372.785 96.861, 372.624 82.500 C 372.521 73.365, 372.153 70.907, 370.451 68 C 368.309 64.340, 366.172 63.698, 359.500 64.711 M 220.646 70.009 C 218.397 72.681, 218 74.100, 218 79.454 C 218 86.362, 217.212 87.608, 212.206 88.609 C 207.739 89.502, 205.658 92.166, 206.485 95.932 C 207.254 99.434, 210.352 102, 213.810 102 L 216.175 102 215.338 114.250 C 213.373 142.975, 215.805 156.097, 224.253 162.355 C 226.390 163.939, 227.273 164.127, 228.203 163.197 C 228.861 162.539, 230.860 162, 232.644 162 C 237.369 162, 240.800 158.527, 242.524 152 C 244.432 144.774, 244.442 136.611, 242.544 135.036 C 240.269 133.149, 239.291 134.513, 238.525 140.645 C 237.488 148.943, 235.296 153, 231.850 153 C 227.002 153, 226.500 150.654, 226.500 128 C 226.500 105.798, 227.056 103, 231.470 103 C 236.793 103, 241.894 99.569, 241.968 95.939 C 242.022 93.288, 238.147 90.066, 233.497 88.895 C 231.057 88.280, 228.653 87.265, 228.154 86.639 C 227.656 86.013, 227.033 81.982, 226.770 77.682 C 226.459 72.606, 225.765 69.337, 224.792 68.363 C 223.459 67.031, 222.998 67.214, 220.646 70.009 M 544.976 69.526 C 543.115 71.507, 542.509 73.529, 542.063 79.254 C 541.529 86.111, 541.346 86.547, 538.500 87.775 C 531.296 90.883, 530.502 91.542, 530.195 94.674 C 529.950 97.165, 530.480 98.205, 532.849 99.892 C 534.477 101.052, 536.810 102, 538.033 102 C 540.252 102, 540.255 102.029, 539.504 114.250 C 537.991 138.849, 539.634 153.035, 544.694 159.048 C 548.035 163.018, 550.873 164.527, 552.307 163.093 C 552.908 162.492, 554.850 162, 556.623 162 C 564.045 162, 568.532 153.388, 567.828 140.500 C 567.542 135.276, 567.241 134.500, 565.500 134.500 C 563.817 134.500, 563.365 135.450, 562.649 140.500 C 561.474 148.778, 559.233 153, 556.013 153 C 551.228 153, 550.530 150.244, 550.184 130 C 549.956 116.645, 550.234 110.394, 551.184 107.522 C 552.418 103.791, 552.809 103.493, 557.492 102.709 C 563.199 101.753, 566 99.687, 566 96.434 C 566 93.649, 560.705 89, 557.534 89 C 556.262 89, 554.165 88.144, 552.873 87.098 C 550.829 85.443, 550.476 84.147, 550.158 77.134 C 549.728 67.666, 548.465 65.812, 544.976 69.526 M 74.879 76.642 C 73.020 81.244, 73.437 89.629, 76.188 103 C 78.840 115.894, 79.751 119.011, 80.857 118.985 C 84.099 118.907, 87.312 111.169, 90.152 96.595 C 92.042 86.900, 92.194 84.590, 91.168 81.168 C 89.895 76.916, 88.230 75.934, 79.766 74.442 C 76.332 73.836, 75.940 74.012, 74.879 76.642 M 935.537 89.499 C 931.462 90.951, 925.536 96.955, 924.679 100.500 C 924.413 101.600, 922.795 106.492, 921.083 111.371 L 917.971 120.242 920.626 132.371 C 922.087 139.042, 924.252 146.164, 925.439 148.199 C 929.191 154.632, 937.681 159.973, 944.191 159.994 C 945.121 159.997, 946.160 160.450, 946.500 161 C 947.669 162.892, 951.630 161.996, 954.237 159.250 C 957.535 155.776, 966.254 138.548, 965.823 136.357 C 965.645 135.454, 964.725 134.226, 963.777 133.629 C 961.730 132.341, 960.187 134.011, 956.936 141.037 C 954.085 147.196, 949.792 150, 943.211 150 C 937.082 150, 935.808 148.592, 934.046 139.873 C 933.197 135.671, 933.197 133.103, 934.045 129.734 L 935.182 125.221 941.841 124.509 C 945.503 124.118, 951.509 123.847, 955.187 123.908 C 961.040 124.005, 962.068 123.741, 963.437 121.787 C 965.965 118.177, 965.480 108.944, 962.437 102.732 C 961.027 99.854, 959.335 96.375, 958.678 95 C 955.891 89.177, 944.227 86.404, 935.537 89.499 M 263.052 91.461 C 255.004 97.400, 252.507 105.490, 255.007 117.533 C 256.770 126.026, 260.104 128.998, 271.321 132.078 C 277.963 133.902, 281.148 135.384, 284.218 138.081 L 288.294 141.662 286.493 146.380 C 283.300 154.740, 278.421 156.786, 270.867 152.932 C 267.557 151.244, 266.283 149.696, 263.930 144.505 C 261.043 138.138, 259.463 136.206, 258.183 137.480 C 257.256 138.403, 256.161 159.301, 256.989 160.274 C 257.351 160.699, 258.471 160.137, 259.479 159.024 C 261.903 156.344, 265.608 156.513, 270.500 159.526 C 273.209 161.194, 275.970 161.991, 279.054 161.995 C 285.436 162.002, 289.295 157.891, 292.562 147.600 C 296.572 134.974, 295.642 129.551, 288.496 123.883 C 283.789 120.148, 281.279 119, 277.825 119 C 271.137 119, 264.520 111.685, 265.163 105.003 C 265.438 102.147, 266.141 101.194, 269 99.801 C 274.253 97.242, 276.574 97.568, 279.333 101.250 C 280.672 103.037, 282.063 105.472, 282.423 106.660 C 282.783 107.848, 283.705 109.340, 284.472 109.977 C 285.577 110.894, 286.220 110.593, 287.573 108.528 C 289.674 105.322, 292.152 95.132, 291.410 92.750 C 290.806 90.811, 289.451 90.462, 288.500 92 C 287.807 93.121, 279.713 93.380, 278.648 92.315 C 277.580 91.247, 270.730 89.032, 268.444 89.015 C 267.314 89.007, 264.887 90.108, 263.052 91.461 M 585.210 91.345 C 576.815 97.539, 574.415 105.489, 577.292 117.570 C 577.957 120.358, 579.703 124.064, 581.174 125.805 C 583.740 128.845, 585.302 129.551, 598 133.409 C 601.025 134.328, 605.006 136.445, 606.848 138.113 C 609.778 140.768, 610.116 141.569, 609.558 144.544 C 608.661 149.327, 603.084 155, 599.280 155 C 594.282 155, 589.855 151.147, 585.650 143.135 C 583.227 138.520, 581.448 136.152, 580.852 136.748 C 579.720 137.880, 578.907 160, 579.997 160 C 580.414 160, 581.315 159.325, 582 158.500 C 583.864 156.254, 588.451 156.687, 592.595 159.500 C 595.238 161.294, 597.582 161.991, 600.890 161.967 C 608.567 161.911, 612.520 157.055, 616.052 143.339 L 618.411 134.179 616.456 130.525 C 613.320 124.667, 605.100 119, 599.739 119 C 595.291 119, 588.270 112.954, 587.412 108.385 C 587.013 106.257, 587.228 103.942, 587.950 102.594 C 589.116 100.414, 593.995 98, 597.232 98 C 599.226 98, 603.613 103.137, 605.523 107.709 C 606.320 109.616, 607.505 110.998, 608.158 110.781 C 609.792 110.236, 613.885 99.233, 613.948 95.216 L 614 91.931 608.940 92.602 C 605.977 92.995, 602.972 92.837, 601.690 92.219 C 593.890 88.464, 589.436 88.227, 585.210 91.345 M 691.270 90.552 C 687.414 92.268, 686.282 95.650, 687.827 100.841 C 688.705 103.789, 688.554 105.860, 687.052 111.500 C 684.725 120.238, 682.030 128.259, 681.084 129.268 C 680.134 130.281, 674.973 109.560, 674.988 104.797 C 674.995 102.760, 675.521 99.950, 676.159 98.551 C 677.124 96.432, 677.015 95.674, 675.504 94.004 C 673.004 91.242, 671.591 91.478, 668.055 95.250 C 663.259 100.367, 658.105 112.658, 653.997 128.780 C 652.653 134.057, 651.316 133.466, 650.489 127.227 C 649.223 117.678, 645.506 99.461, 644.032 95.584 C 643.097 93.124, 642.691 93, 635.596 93 C 630.154 93, 627.719 93.424, 626.571 94.571 C 624.295 96.848, 624.642 99.719, 627.414 101.536 C 631.945 104.504, 637.853 119.641, 640.475 135 C 641.179 139.125, 642.486 144.173, 643.378 146.218 C 644.270 148.263, 645 151.425, 645 153.245 C 645 155.066, 645.721 157.584, 646.601 158.841 C 648.120 161.010, 648.299 161.039, 650.089 159.419 C 651.924 157.759, 658 140.505, 658 136.957 C 658 133.790, 662.253 127, 664.237 127 C 666.489 127, 668.528 131.458, 669.498 138.500 C 671.051 149.774, 675.358 161, 678.130 161 C 679.125 161, 682.190 154.153, 683.948 148 C 684.655 145.525, 686.024 141.250, 686.990 138.500 C 687.956 135.750, 689.975 129.042, 691.476 123.593 C 695.027 110.707, 697.319 105.492, 700.289 103.546 C 701.618 102.676, 703.542 100.408, 704.566 98.507 C 706.399 95.103, 706.396 95.007, 704.364 92.275 C 701.919 88.988, 696.413 88.263, 691.270 90.552 M 793.500 91.059 C 791.850 91.542, 789.948 92.828, 789.274 93.916 C 788.201 95.648, 788.464 96.244, 791.382 98.697 C 793.215 100.239, 795.033 102.819, 795.422 104.431 C 795.811 106.043, 795.806 116.384, 795.411 127.411 L 794.693 147.460 790.847 151.269 C 782.752 159.283, 788.577 165.317, 799.185 159.906 C 802.583 158.172, 803.724 158.009, 805.807 158.958 C 807.847 159.888, 808.621 159.807, 809.895 158.534 C 810.986 157.443, 811.166 156.552, 810.483 155.622 C 806.026 149.541, 806.018 149.512, 805.809 137.438 C 805.649 128.184, 806.096 123.312, 807.801 115.767 C 809.010 110.415, 810 104.891, 810 103.493 C 810 100.703, 812.627 99.205, 819.134 98.283 C 821.898 97.891, 823.245 98.245, 824.763 99.763 C 826.585 101.585, 826.822 103.661, 827.490 123.694 L 828.221 145.630 825.544 150.913 C 822.999 155.936, 822.952 156.289, 824.589 158.098 C 825.939 159.591, 827.690 160, 832.721 160 C 836.247 160, 840.031 160.481, 841.130 161.069 C 842.584 161.848, 843.518 161.815, 844.564 160.947 C 846.672 159.198, 846.377 157.594, 842.500 149.725 L 839 142.620 839 123.738 C 839 105.133, 838.961 104.788, 836.340 100.178 C 831.936 92.434, 829.338 90.488, 823.522 90.575 C 819.600 90.634, 817.483 91.346, 813.855 93.825 C 808.280 97.636, 806.553 97.773, 804.457 94.575 C 803.267 92.759, 797.376 89.396, 796.601 90.090 C 796.545 90.140, 795.150 90.576, 793.500 91.059 M 181.524 93.428 C 176.926 95.654, 176.289 95.730, 173.151 94.419 C 171.284 93.638, 167.127 93, 163.913 93 C 159 93, 157.891 93.334, 156.946 95.102 C 156.005 96.859, 156.226 97.638, 158.289 99.852 C 161.541 103.340, 162.119 107.197, 162.060 124.971 C 162.012 139.339, 161.909 140.058, 159.005 146.331 C 155.442 154.029, 155.258 156.533, 158.142 158.076 C 161.143 159.682, 174.164 159.539, 176.836 157.871 C 179.653 156.111, 179.567 155.202, 176.250 151.734 L 173.500 148.859 173.843 127.200 C 174.101 110.901, 174.541 104.855, 175.619 102.770 C 177.451 99.227, 178.574 99.276, 180.491 102.983 C 184.740 111.199, 198 110.089, 198 101.517 C 198 99.113, 193.923 94.428, 191.031 93.510 C 189.914 93.155, 189 92.446, 189 91.933 C 189 90.425, 186.828 90.860, 181.524 93.428 M 332.500 92.152 C 324.614 94.765, 317.927 98.120, 316.855 100 C 316.384 100.825, 315.540 102.625, 314.979 104 C 314.419 105.375, 312.654 108.525, 311.059 111 C 308.329 115.234, 308.153 116.142, 308.079 126.365 C 308.007 136.307, 308.229 137.665, 310.694 142.365 C 312.175 145.189, 314.988 149.231, 316.944 151.346 C 320.796 155.512, 330.204 162, 332.393 162 C 334.195 162, 342.917 157.208, 345.768 154.651 C 348.573 152.136, 353 142.975, 353 139.684 C 353 136.849, 350.819 134.690, 348.438 135.167 C 347.527 135.350, 345.083 138.650, 343.009 142.500 C 339.752 148.546, 338.748 149.626, 335.642 150.421 C 330.211 151.811, 327.360 150.019, 324.229 143.245 C 321.762 137.907, 321.576 136.543, 321.610 124 C 321.638 113.693, 322.034 109.642, 323.286 106.871 C 325.145 102.758, 326.518 102, 332.113 102 C 336.961 102, 337.300 102.726, 337.414 113.354 C 337.497 121.132, 337.599 121.467, 340.328 122.957 C 343.105 124.472, 343.218 124.429, 346.578 120.583 C 350.675 115.895, 350.890 113.034, 347.832 103.944 C 343.933 92.359, 340.303 89.566, 332.500 92.152 M 437.759 92.398 C 430.371 95.084, 425.466 99.947, 423.141 106.891 C 422.157 109.831, 422.305 110.816, 424.253 114.300 C 428.712 122.274, 431.876 121.612, 434.573 112.142 C 437.327 102.473, 438.053 101.500, 442.509 101.500 C 447.514 101.500, 448.965 104.037, 448.985 112.827 C 448.998 118.496, 448.696 119.458, 446.077 122.077 C 444.394 123.760, 442.086 125, 440.636 125 C 439.251 125, 437.872 125.398, 437.572 125.884 C 437.271 126.370, 435.067 127.688, 432.673 128.814 C 421.872 133.891, 418.991 139.148, 420.963 150.184 C 422.011 156.048, 422.660 157.402, 425.439 159.521 C 430.821 163.626, 438.241 162.162, 445.302 155.603 C 449.051 152.119, 451.401 152.322, 455.703 156.500 C 459.787 160.466, 464.615 161.197, 467.262 158.250 C 469.514 155.742, 472.999 146.061, 472.999 142.309 C 473 136.396, 468.723 137.180, 467.490 143.319 C 466.322 149.132, 465.879 150, 464.081 150 C 462.564 150, 462.200 148.761, 461.654 141.750 C 461.301 137.213, 461.009 128.697, 461.006 122.826 C 460.999 111.258, 459.595 102.942, 456.982 99 C 456.071 97.625, 455.065 95.775, 454.748 94.890 C 454.389 93.889, 452.529 93.061, 449.835 92.703 C 447.451 92.387, 444.600 91.883, 443.500 91.583 C 442.400 91.283, 439.817 91.650, 437.759 92.398 M 724.025 93.535 C 721.015 94.807, 718.407 96.279, 718.231 96.807 C 718.055 97.335, 718.833 99.282, 719.960 101.134 C 724.971 109.366, 725.190 110.538, 725.358 130.012 C 725.532 150.193, 725.749 151.082, 731.878 156.763 C 738.260 162.677, 743.292 162.670, 751.667 156.734 C 755.694 153.879, 758 153.752, 758 156.385 C 758 157.081, 759.013 158.596, 760.250 159.751 C 762.239 161.607, 763.067 161.744, 767.393 160.929 C 770.085 160.422, 772.897 159.500, 773.643 158.881 C 775.707 157.168, 775.270 153.896, 772.597 151.055 C 768.853 147.074, 766.808 137.380, 767.990 129.208 C 768.524 125.519, 768.969 116.828, 768.980 109.896 C 768.999 97.890, 768.884 97.167, 766.548 94.646 C 764.469 92.404, 763.258 92, 758.604 92 C 754.309 92, 752.527 92.503, 750.428 94.309 C 747.190 97.094, 747.579 99.076, 752.355 104.141 C 756.624 108.666, 757.296 114.050, 756.076 133.968 C 755.204 148.214, 755.147 148.471, 752.345 150.713 C 747.419 154.656, 741.662 153.115, 738.505 147.009 C 737.308 144.694, 737.062 140.023, 737.234 122.820 C 737.485 97.614, 736.393 90.923, 732.061 91.112 C 730.652 91.173, 727.036 92.264, 724.025 93.535 M 998.809 93.627 C 994.287 96.060, 993.996 96.092, 990.692 94.524 C 988.352 93.413, 985.240 92.993, 980.882 93.199 C 974.974 93.478, 974.474 93.681, 974.155 95.944 C 973.965 97.288, 974.454 98.863, 975.242 99.444 C 978.920 102.157, 979.498 105.222, 979.593 122.500 C 979.685 139.280, 979.649 139.573, 976.843 145.124 C 973.739 151.263, 973.203 156.093, 975.419 157.933 C 977.365 159.548, 991.292 159.459, 993.925 157.815 C 996.526 156.191, 996.601 153.392, 994.080 152.043 C 990.972 150.379, 989.664 144.690, 990.538 136.629 C 990.963 132.708, 991.367 123.875, 991.436 117 C 991.528 107.911, 991.960 103.886, 993.021 102.250 C 994.818 99.480, 996.662 99.359, 997.486 101.956 C 998.477 105.078, 1003.842 109, 1007.122 109 C 1010.723 109, 1015.014 105.059, 1014.967 101.795 C 1014.929 99.170, 1012.820 96.485, 1008.256 93.250 C 1004.400 90.518, 1004.606 90.509, 998.809 93.627 M 124.500 92.740 C 121.750 92.949, 119.102 93.513, 118.616 93.994 C 118.107 94.497, 119.258 96.945, 121.332 99.771 C 124.164 103.628, 125.171 106.221, 126.057 111.927 C 128.128 125.276, 125.858 148.583, 121.952 154.068 C 119.605 157.363, 119.598 157.455, 121.521 159.378 C 123.553 161.410, 139.613 160.507, 142.250 158.213 C 144.595 156.172, 144.474 155.093, 141.253 149.376 C 138.508 144.504, 138.505 144.481, 138.003 119.669 C 137.535 96.564, 137.365 94.740, 135.559 93.419 C 134.491 92.639, 132.691 92.081, 131.559 92.180 C 130.426 92.279, 127.250 92.531, 124.500 92.740 M 871.988 100.250 C 867.746 107.205, 866.744 113.461, 867.222 130 C 867.606 143.252, 867.977 146.096, 869.783 149.607 C 873.427 156.693, 878.569 157.365, 885.500 151.661 L 888.500 149.193 888.832 132.251 C 889.149 116.054, 889.046 114.963, 886.481 107.405 C 883.482 98.565, 882.100 97, 877.294 97 C 874.618 97, 873.585 97.633, 871.988 100.250 M 937.282 101.250 C 932.907 108.673, 931.921 115.015, 934.557 118.777 C 936.405 121.416, 937.507 121.490, 944.536 119.446 C 949.095 118.121, 950.036 117.422, 950.939 114.685 C 952.070 111.258, 951.397 107.602, 948.662 102.313 C 945.831 96.838, 940.193 96.312, 937.282 101.250 M 440.712 130.672 C 436.211 132.540, 434 136.904, 434 143.922 C 434 149.427, 435.244 151, 439.596 151 C 445.869 151, 451.292 141.160, 449.505 133.022 C 449.140 131.360, 448.464 130, 448.002 130 C 447.541 130, 446.564 129.797, 445.832 129.550 C 445.099 129.302, 442.796 129.807, 440.712 130.672 M -0 210.003 L -0 220.002 512.250 219.751 L 1024.500 219.500 1024.782 209.500 L 1025.064 199.500 512.532 199.752 L 0 200.004 -0 210.003 M 0.370 210 C 0.370 215.775, 0.535 218.137, 0.737 215.250 C 0.939 212.363, 0.939 207.637, 0.737 204.750 C 0.535 201.863, 0.370 204.225, 0.370 210" stroke="none" fill="#000000" fill-rule="evenodd"/><path d="M -0 25.003 L -0 30.002 512.250 29.751 L 1024.500 29.500 1024.794 24.500 L 1025.087 19.500 512.544 19.752 L 0 20.004 -0 25.003 M 129.881 62.503 C 126.401 64.395, 123.735 70.091, 124.637 73.712 C 125.796 78.362, 128.543 82.483, 130.697 82.802 C 131.993 82.994, 133.692 81.966, 135.367 79.975 C 137.441 77.511, 138 75.787, 138 71.858 C 138 66.930, 136.742 63.195, 134.600 61.765 C 133.157 60.802, 132.954 60.833, 129.881 62.503 M 92.865 62.656 C 91.416 62.906, 88.420 64.661, 86.206 66.555 C 83.993 68.450, 81.665 70, 81.033 70 C 80.402 70, 77.998 68.965, 75.692 67.700 C 63.726 61.134, 54.310 61.527, 49.827 68.780 L 47.703 72.217 50.926 74.739 C 54.481 77.522, 55.302 79.217, 58.069 89.500 C 60.480 98.459, 60.467 101.727, 57.996 107.123 C 55.291 113.029, 49.814 119.249, 47.948 118.533 C 45.237 117.493, 41.649 102.277, 40.380 86.434 C 39.661 77.464, 40.617 74.336, 44.238 73.820 C 47.532 73.350, 47.513 70.605, 44.188 66.884 L 41.261 63.608 28.219 63.554 C 15.703 63.502, 15.072 63.599, 12.547 65.963 C 9.563 68.758, 9.539 71.763, 12.489 73.398 C 18.401 76.675, 19.933 78.427, 23.505 86 C 27.722 94.939, 29 98.198, 29 100.012 C 29 101.090, 29.458 103.890, 30.017 106.236 C 34.560 125.282, 37.265 135.620, 39.449 142.281 C 40.852 146.560, 42 151.568, 42 153.408 C 42 155.269, 42.717 157.350, 43.615 158.095 C 44.999 159.244, 45.498 159.103, 47.115 157.107 C 48.152 155.826, 49.007 154.041, 49.015 153.139 C 49.023 152.238, 49.718 149.521, 50.561 147.102 C 51.403 144.684, 52.493 139.734, 52.983 136.102 C 54.625 123.928, 56.832 115.895, 59.778 111.365 L 62.703 106.869 63.852 111.434 C 64.483 113.945, 65.419 117.912, 65.931 120.250 C 66.443 122.588, 67.603 127.875, 68.509 132 C 70.223 139.805, 71.600 144.748, 73.244 149 C 76.737 158.034, 79.150 160.456, 81.074 156.862 C 82.779 153.677, 87.170 137.975, 87.608 133.500 C 87.975 129.748, 89.287 123.488, 92.601 109.669 C 93.371 106.462, 94 102.516, 94 100.899 C 94 99.283, 95.059 96.282, 96.354 94.230 C 97.649 92.179, 99.050 89.375, 99.468 88 C 100.671 84.043, 104.039 79, 105.478 79 C 106.201 79, 108.215 77.380, 109.953 75.400 C 115.824 68.714, 112.332 63.445, 101.500 62.644 C 98.200 62.400, 94.314 62.406, 92.865 62.656 M 504.974 64.553 C 503.584 65.291, 501.482 66.931, 500.302 68.197 C 498.262 70.386, 491 85.708, 491 87.823 C 491 88.373, 489.650 89.958, 488 91.347 C 484.218 94.529, 484.244 95.491, 488.208 99.194 C 490.965 101.769, 491.520 103.127, 492.157 108.845 C 493.090 117.234, 493.206 138.217, 492.353 144.441 C 491.793 148.527, 491.189 149.487, 487.853 151.593 C 483.513 154.333, 482.912 156.552, 486.250 157.512 C 487.488 157.868, 489.884 158.782, 491.576 159.544 C 495.155 161.155, 515.498 160.902, 517.176 159.224 C 517.863 158.537, 516.382 156.844, 512.596 153.984 C 509.518 151.661, 506.986 149.476, 506.968 149.130 C 506.951 148.783, 506.285 144, 505.488 138.500 C 504.691 133, 504.031 126.025, 504.021 123 C 503.999 116.410, 506.581 101.019, 507.935 99.665 C 508.465 99.135, 510.560 98.431, 512.590 98.101 C 517.329 97.330, 519.319 94.491, 516.559 92.441 C 515.491 91.649, 513.426 91, 511.969 91 C 509.057 91, 507 87.848, 507 83.387 C 507 77.827, 511.110 75.018, 514.055 78.566 C 514.770 79.427, 516.666 80.810, 518.268 81.639 C 520.915 83.007, 521.357 82.987, 523.091 81.418 C 524.499 80.143, 525 78.338, 525 74.535 C 525 70.112, 524.557 68.927, 521.881 66.190 C 519.068 63.312, 518.211 63.010, 513.131 63.106 C 510.034 63.164, 506.363 63.816, 504.974 64.553 M 880.241 64.986 C 878.354 68.007, 878.593 68.550, 884.338 74.295 C 887.485 77.442, 889.923 80.863, 890.276 82.628 C 890.863 85.564, 889.939 91.672, 888.573 93.882 C 887.721 95.261, 883.502 95.339, 881.039 94.021 C 880.033 93.483, 876.726 92.750, 873.689 92.393 C 866.475 91.545, 863.109 93.823, 859.017 102.321 C 853.739 113.282, 852.564 133.648, 856.604 144.128 C 858.701 149.567, 864.948 156.222, 870.164 158.574 C 874.029 160.317, 874.273 160.306, 881.188 158.079 C 886.475 156.376, 888.795 156.054, 890.380 156.803 C 897.216 160.034, 904.247 162.155, 906.362 161.624 C 907.725 161.282, 909.262 159.782, 909.950 158.121 C 911.390 154.643, 910.254 152.256, 905.992 149.810 C 902.013 147.526, 901.688 144.247, 901.801 107.500 C 901.933 64.682, 901.433 63, 888.566 63 C 882.580 63, 881.289 63.308, 880.241 64.986 M 359.500 64.711 C 356.058 65.234, 350 69.484, 350 71.377 C 350 72.078, 351.170 73.742, 352.601 75.076 C 354.031 76.409, 356.169 79.525, 357.351 82 C 359.405 86.302, 359.494 87.756, 359.367 115 C 359.247 140.597, 359.024 144.213, 357.175 150.500 C 355.337 156.748, 355.273 157.742, 356.581 159.750 C 358.090 162.068, 361.407 162.768, 362.500 161 C 363.346 159.632, 367.612 159.741, 369.932 161.190 C 371.439 162.131, 372.190 162.087, 373.524 160.980 C 375.480 159.357, 375.180 153.535, 372.494 141 C 371.611 136.875, 370.638 129.421, 370.333 124.436 C 369.822 116.103, 369.982 114.974, 372.315 110.436 C 374.839 105.526, 380.641 100, 383.272 100 C 384.031 100, 385.538 101.013, 386.621 102.250 C 390.471 106.648, 391.385 111.684, 391.383 128.500 C 391.382 141.682, 391.048 145.428, 389.487 149.768 C 387.601 155.010, 387.602 155.046, 389.656 157.100 C 392.230 159.675, 403.102 160.990, 405.482 159.015 C 407.271 157.531, 407.477 153.877, 405.864 152.264 C 405.137 151.537, 404.433 143.091, 403.910 128.814 C 403.020 104.509, 402.311 98.908, 399.603 94.789 C 397.806 92.055, 397.044 91.659, 391.391 90.526 C 387.899 89.826, 380.731 92.202, 377.436 95.152 C 376.300 96.168, 374.838 97, 374.186 97 C 372.800 97, 372.785 96.861, 372.624 82.500 C 372.521 73.365, 372.153 70.907, 370.451 68 C 368.309 64.340, 366.172 63.698, 359.500 64.711 M 220.646 70.009 C 218.397 72.681, 218 74.100, 218 79.454 C 218 86.362, 217.212 87.608, 212.206 88.609 C 207.739 89.502, 205.658 92.166, 206.485 95.932 C 207.254 99.434, 210.352 102, 213.810 102 L 216.175 102 215.338 114.250 C 213.373 142.975, 215.805 156.097, 224.253 162.355 C 226.390 163.939, 227.273 164.127, 228.203 163.197 C 228.861 162.539, 230.860 162, 232.644 162 C 237.369 162, 240.800 158.527, 242.524 152 C 244.432 144.774, 244.442 136.611, 242.544 135.036 C 240.269 133.149, 239.291 134.513, 238.525 140.645 C 237.488 148.943, 235.296 153, 231.850 153 C 227.002 153, 226.500 150.654, 226.500 128 C 226.500 105.798, 227.056 103, 231.470 103 C 236.793 103, 241.894 99.569, 241.968 95.939 C 242.022 93.288, 238.147 90.066, 233.497 88.895 C 231.057 88.280, 228.653 87.265, 228.154 86.639 C 227.656 86.013, 227.033 81.982, 226.770 77.682 C 226.459 72.606, 225.765 69.337, 224.792 68.363 C 223.459 67.031, 222.998 67.214, 220.646 70.009 M 544.976 69.526 C 543.115 71.507, 542.509 73.529, 542.063 79.254 C 541.529 86.111, 541.346 86.547, 538.500 87.775 C 531.296 90.883, 530.502 91.542, 530.195 94.674 C 529.950 97.165, 530.480 98.205, 532.849 99.892 C 534.477 101.052, 536.810 102, 538.033 102 C 540.252 102, 540.255 102.029, 539.504 114.250 C 537.991 138.849, 539.634 153.035, 544.694 159.048 C 548.035 163.018, 550.873 164.527, 552.307 163.093 C 552.908 162.492, 554.850 162, 556.623 162 C 564.045 162, 568.532 153.388, 567.828 140.500 C 567.542 135.276, 567.241 134.500, 565.500 134.500 C 563.817 134.500, 563.365 135.450, 562.649 140.500 C 561.474 148.778, 559.233 153, 556.013 153 C 551.228 153, 550.530 150.244, 550.184 130 C 549.956 116.645, 550.234 110.394, 551.184 107.522 C 552.418 103.791, 552.809 103.493, 557.492 102.709 C 563.199 101.753, 566 99.687, 566 96.434 C 566 93.649, 560.705 89, 557.534 89 C 556.262 89, 554.165 88.144, 552.873 87.098 C 550.829 85.443, 550.476 84.147, 550.158 77.134 C 549.728 67.666, 548.465 65.812, 544.976 69.526 M 74.879 76.642 C 73.020 81.244, 73.437 89.629, 76.188 103 C 78.840 115.894, 79.751 119.011, 80.857 118.985 C 84.099 118.907, 87.312 111.169, 90.152 96.595 C 92.042 86.900, 92.194 84.590, 91.168 81.168 C 89.895 76.916, 88.230 75.934, 79.766 74.442 C 76.332 73.836, 75.940 74.012, 74.879 76.642 M 935.537 89.499 C 931.462 90.951, 925.536 96.955, 924.679 100.500 C 924.413 101.600, 922.795 106.492, 921.083 111.371 L 917.971 120.242 920.626 132.371 C 922.087 139.042, 924.252 146.164, 925.439 148.199 C 929.191 154.632, 937.681 159.973, 944.191 159.994 C 945.121 159.997, 946.160 160.450, 946.500 161 C 947.669 162.892, 951.630 161.996, 954.237 159.250 C 957.535 155.776, 966.254 138.548, 965.823 136.357 C 965.645 135.454, 964.725 134.226, 963.777 133.629 C 961.730 132.341, 960.187 134.011, 956.936 141.037 C 954.085 147.196, 949.792 150, 943.211 150 C 937.082 150, 935.808 148.592, 934.046 139.873 C 933.197 135.671, 933.197 133.103, 934.045 129.734 L 935.182 125.221 941.841 124.509 C 945.503 124.118, 951.509 123.847, 955.187 123.908 C 961.040 124.005, 962.068 123.741, 963.437 121.787 C 965.965 118.177, 965.480 108.944, 962.437 102.732 C 961.027 99.854, 959.335 96.375, 958.678 95 C 955.891 89.177, 944.227 86.404, 935.537 89.499 M 263.052 91.461 C 255.004 97.400, 252.507 105.490, 255.007 117.533 C 256.770 126.026, 260.104 128.998, 271.321 132.078 C 277.963 133.902, 281.148 135.384, 284.218 138.081 L 288.294 141.662 286.493 146.380 C 283.300 154.740, 278.421 156.786, 270.867 152.932 C 267.557 151.244, 266.283 149.696, 263.930 144.505 C 261.043 138.138, 259.463 136.206, 258.183 137.480 C 257.256 138.403, 256.161 159.301, 256.989 160.274 C 257.351 160.699, 258.471 160.137, 259.479 159.024 C 261.903 156.344, 265.608 156.513, 270.500 159.526 C 273.209 161.194, 275.970 161.991, 279.054 161.995 C 285.436 162.002, 289.295 157.891, 292.562 147.600 C 296.572 134.974, 295.642 129.551, 288.496 123.883 C 283.789 120.148, 281.279 119, 277.825 119 C 271.137 119, 264.520 111.685, 265.163 105.003 C 265.438 102.147, 266.141 101.194, 269 99.801 C 274.253 97.242, 276.574 97.568, 279.333 101.250 C 280.672 103.037, 282.063 105.472, 282.423 106.660 C 282.783 107.848, 283.705 109.340, 284.472 109.977 C 285.577 110.894, 286.220 110.593, 287.573 108.528 C 289.674 105.322, 292.152 95.132, 291.410 92.750 C 290.806 90.811, 289.451 90.462, 288.500 92 C 287.807 93.121, 279.713 93.380, 278.648 92.315 C 277.580 91.247, 270.730 89.032, 268.444 89.015 C 267.314 89.007, 264.887 90.108, 263.052 91.461 M 585.210 91.345 C 576.815 97.539, 574.415 105.489, 577.292 117.570 C 577.957 120.358, 579.703 124.064, 581.174 125.805 C 583.740 128.845, 585.302 129.551, 598 133.409 C 601.025 134.328, 605.006 136.445, 606.848 138.113 C 609.778 140.768, 610.116 141.569, 609.558 144.544 C 608.661 149.327, 603.084 155, 599.280 155 C 594.282 155, 589.855 151.147, 585.650 143.135 C 583.227 138.520, 581.448 136.152, 580.852 136.748 C 579.720 137.880, 578.907 160, 579.997 160 C 580.414 160, 581.315 159.325, 582 158.500 C 583.864 156.254, 588.451 156.687, 592.595 159.500 C 595.238 161.294, 597.582 161.991, 600.890 161.967 C 608.567 161.911, 612.520 157.055, 616.052 143.339 L 618.411 134.179 616.456 130.525 C 613.320 124.667, 605.100 119, 599.739 119 C 595.291 119, 588.270 112.954, 587.412 108.385 C 587.013 106.257, 587.228 103.942, 587.950 102.594 C 589.116 100.414, 593.995 98, 597.232 98 C 599.226 98, 603.613 103.137, 605.523 107.709 C 606.320 109.616, 607.505 110.998, 608.158 110.781 C 609.792 110.236, 613.885 99.233, 613.948 95.216 L 614 91.931 608.940 92.602 C 605.977 92.995, 602.972 92.837, 601.690 92.219 C 593.890 88.464, 589.436 88.227, 585.210 91.345 M 691.270 90.552 C 687.414 92.268, 686.282 95.650, 687.827 100.841 C 688.705 103.789, 688.554 105.860, 687.052 111.500 C 684.725 120.238, 682.030 128.259, 681.084 129.268 C 680.134 130.281, 674.973 109.560, 674.988 104.797 C 674.995 102.760, 675.521 99.950, 676.159 98.551 C 677.124 96.432, 677.015 95.674, 675.504 94.004 C 673.004 91.242, 671.591 91.478, 668.055 95.250 C 663.259 100.367, 658.105 112.658, 653.997 128.780 C 652.653 134.057, 651.316 133.466, 650.489 127.227 C 649.223 117.678, 645.506 99.461, 644.032 95.584 C 643.097 93.124, 642.691 93, 635.596 93 C 630.154 93, 627.719 93.424, 626.571 94.571 C 624.295 96.848, 624.642 99.719, 627.414 101.536 C 631.945 104.504, 637.853 119.641, 640.475 135 C 641.179 139.125, 642.486 144.173, 643.378 146.218 C 644.270 148.263, 645 151.425, 645 153.245 C 645 155.066, 645.721 157.584, 646.601 158.841 C 648.120 161.010, 648.299 161.039, 650.089 159.419 C 651.924 157.759, 658 140.505, 658 136.957 C 658 133.790, 662.253 127, 664.237 127 C 666.489 127, 668.528 131.458, 669.498 138.500 C 671.051 149.774, 675.358 161, 678.130 161 C 679.125 161, 682.190 154.153, 683.948 148 C 684.655 145.525, 686.024 141.250, 686.990 138.500 C 687.956 135.750, 689.975 129.042, 691.476 123.593 C 695.027 110.707, 697.319 105.492, 700.289 103.546 C 701.618 102.676, 703.542 100.408, 704.566 98.507 C 706.399 95.103, 706.396 95.007, 704.364 92.275 C 701.919 88.988, 696.413 88.263, 691.270 90.552 M 793.500 91.059 C 791.850 91.542, 789.948 92.828, 789.274 93.916 C 788.201 95.648, 788.464 96.244, 791.382 98.697 C 793.215 100.239, 795.033 102.819, 795.422 104.431 C 795.811 106.043, 795.806 116.384, 795.411 127.411 L 794.693 147.460 790.847 151.269 C 782.752 159.283, 788.577 165.317, 799.185 159.906 C 802.583 158.172, 803.724 158.009, 805.807 158.958 C 807.847 159.888, 808.621 159.807, 809.895 158.534 C 810.986 157.443, 811.166 156.552, 810.483 155.622 C 806.026 149.541, 806.018 149.512, 805.809 137.438 C 805.649 128.184, 806.096 123.312, 807.801 115.767 C 809.010 110.415, 810 104.891, 810 103.493 C 810 100.703, 812.627 99.205, 819.134 98.283 C 821.898 97.891, 823.245 98.245, 824.763 99.763 C 826.585 101.585, 826.822 103.661, 827.490 123.694 L 828.221 145.630 825.544 150.913 C 822.999 155.936, 822.952 156.289, 824.589 158.098 C 825.939 159.591, 827.690 160, 832.721 160 C 836.247 160, 840.031 160.481, 841.130 161.069 C 842.584 161.848, 843.518 161.815, 844.564 160.947 C 846.672 159.198, 846.377 157.594, 842.500 149.725 L 839 142.620 839 123.738 C 839 105.133, 838.961 104.788, 836.340 100.178 C 831.936 92.434, 829.338 90.488, 823.522 90.575 C 819.600 90.634, 817.483 91.346, 813.855 93.825 C 808.280 97.636, 806.553 97.773, 804.457 94.575 C 803.267 92.759, 797.376 89.396, 796.601 90.090 C 796.545 90.140, 795.150 90.576, 793.500 91.059 M 181.524 93.428 C 176.926 95.654, 176.289 95.730, 173.151 94.419 C 171.284 93.638, 167.127 93, 163.913 93 C 159 93, 157.891 93.334, 156.946 95.102 C 156.005 96.859, 156.226 97.638, 158.289 99.852 C 161.541 103.340, 162.119 107.197, 162.060 124.971 C 162.012 139.339, 161.909 140.058, 159.005 146.331 C 155.442 154.029, 155.258 156.533, 158.142 158.076 C 161.143 159.682, 174.164 159.539, 176.836 157.871 C 179.653 156.111, 179.567 155.202, 176.250 151.734 L 173.500 148.859 173.843 127.200 C 174.101 110.901, 174.541 104.855, 175.619 102.770 C 177.451 99.227, 178.574 99.276, 180.491 102.983 C 184.740 111.199, 198 110.089, 198 101.517 C 198 99.113, 193.923 94.428, 191.031 93.510 C 189.914 93.155, 189 92.446, 189 91.933 C 189 90.425, 186.828 90.860, 181.524 93.428 M 332.500 92.152 C 324.614 94.765, 317.927 98.120, 316.855 100 C 316.384 100.825, 315.540 102.625, 314.979 104 C 314.419 105.375, 312.654 108.525, 311.059 111 C 308.329 115.234, 308.153 116.142, 308.079 126.365 C 308.007 136.307, 308.229 137.665, 310.694 142.365 C 312.175 145.189, 314.988 149.231, 316.944 151.346 C 320.796 155.512, 330.204 162, 332.393 162 C 334.195 162, 342.917 157.208, 345.768 154.651 C 348.573 152.136, 353 142.975, 353 139.684 C 353 136.849, 350.819 134.690, 348.438 135.167 C 347.527 135.350, 345.083 138.650, 343.009 142.500 C 339.752 148.546, 338.748 149.626, 335.642 150.421 C 330.211 151.811, 327.360 150.019, 324.229 143.245 C 321.762 137.907, 321.576 136.543, 321.610 124 C 321.638 113.693, 322.034 109.642, 323.286 106.871 C 325.145 102.758, 326.518 102, 332.113 102 C 336.961 102, 337.300 102.726, 337.414 113.354 C 337.497 121.132, 337.599 121.467, 340.328 122.957 C 343.105 124.472, 343.218 124.429, 346.578 120.583 C 350.675 115.895, 350.890 113.034, 347.832 103.944 C 343.933 92.359, 340.303 89.566, 332.500 92.152 M 437.759 92.398 C 430.371 95.084, 425.466 99.947, 423.141 106.891 C 422.157 109.831, 422.305 110.816, 424.253 114.300 C 428.712 122.274, 431.876 121.612, 434.573 112.142 C 437.327 102.473, 438.053 101.500, 442.509 101.500 C 447.514 101.500, 448.965 104.037, 448.985 112.827 C 448.998 118.496, 448.696 119.458, 446.077 122.077 C 444.394 123.760, 442.086 125, 440.636 125 C 439.251 125, 437.872 125.398, 437.572 125.884 C 437.271 126.370, 435.067 127.688, 432.673 128.814 C 421.872 133.891, 418.991 139.148, 420.963 150.184 C 422.011 156.048, 422.660 157.402, 425.439 159.521 C 430.821 163.626, 438.241 162.162, 445.302 155.603 C 449.051 152.119, 451.401 152.322, 455.703 156.500 C 459.787 160.466, 464.615 161.197, 467.262 158.250 C 469.514 155.742, 472.999 146.061, 472.999 142.309 C 473 136.396, 468.723 137.180, 467.490 143.319 C 466.322 149.132, 465.879 150, 464.081 150 C 462.564 150, 462.200 148.761, 461.654 141.750 C 461.301 137.213, 461.009 128.697, 461.006 122.826 C 460.999 111.258, 459.595 102.942, 456.982 99 C 456.071 97.625, 455.065 95.775, 454.748 94.890 C 454.389 93.889, 452.529 93.061, 449.835 92.703 C 447.451 92.387, 444.600 91.883, 443.500 91.583 C 442.400 91.283, 439.817 91.650, 437.759 92.398 M 724.025 93.535 C 721.015 94.807, 718.407 96.279, 718.231 96.807 C 718.055 97.335, 718.833 99.282, 719.960 101.134 C 724.971 109.366, 725.190 110.538, 725.358 130.012 C 725.532 150.193, 725.749 151.082, 731.878 156.763 C 738.260 162.677, 743.292 162.670, 751.667 156.734 C 755.694 153.879, 758 153.752, 758 156.385 C 758 157.081, 759.013 158.596, 760.250 159.751 C 762.239 161.607, 763.067 161.744, 767.393 160.929 C 770.085 160.422, 772.897 159.500, 773.643 158.881 C 775.707 157.168, 775.270 153.896, 772.597 151.055 C 768.853 147.074, 766.808 137.380, 767.990 129.208 C 768.524 125.519, 768.969 116.828, 768.980 109.896 C 768.999 97.890, 768.884 97.167, 766.548 94.646 C 764.469 92.404, 763.258 92, 758.604 92 C 754.309 92, 752.527 92.503, 750.428 94.309 C 747.190 97.094, 747.579 99.076, 752.355 104.141 C 756.624 108.666, 757.296 114.050, 756.076 133.968 C 755.204 148.214, 755.147 148.471, 752.345 150.713 C 747.419 154.656, 741.662 153.115, 738.505 147.009 C 737.308 144.694, 737.062 140.023, 737.234 122.820 C 737.485 97.614, 736.393 90.923, 732.061 91.112 C 730.652 91.173, 727.036 92.264, 724.025 93.535 M 998.809 93.627 C 994.287 96.060, 993.996 96.092, 990.692 94.524 C 988.352 93.413, 985.240 92.993, 980.882 93.199 C 974.974 93.478, 974.474 93.681, 974.155 95.944 C 973.965 97.288, 974.454 98.863, 975.242 99.444 C 978.920 102.157, 979.498 105.222, 979.593 122.500 C 979.685 139.280, 979.649 139.573, 976.843 145.124 C 973.739 151.263, 973.203 156.093, 975.419 157.933 C 977.365 159.548, 991.292 159.459, 993.925 157.815 C 996.526 156.191, 996.601 153.392, 994.080 152.043 C 990.972 150.379, 989.664 144.690, 990.538 136.629 C 990.963 132.708, 991.367 123.875, 991.436 117 C 991.528 107.911, 991.960 103.886, 993.021 102.250 C 994.818 99.480, 996.662 99.359, 997.486 101.956 C 998.477 105.078, 1003.842 109, 1007.122 109 C 1010.723 109, 1015.014 105.059, 1014.967 101.795 C 1014.929 99.170, 1012.820 96.485, 1008.256 93.250 C 1004.400 90.518, 1004.606 90.509, 998.809 93.627 M 124.500 92.740 C 121.750 92.949, 119.102 93.513, 118.616 93.994 C 118.107 94.497, 119.258 96.945, 121.332 99.771 C 124.164 103.628, 125.171 106.221, 126.057 111.927 C 128.128 125.276, 125.858 148.583, 121.952 154.068 C 119.605 157.363, 119.598 157.455, 121.521 159.378 C 123.553 161.410, 139.613 160.507, 142.250 158.213 C 144.595 156.172, 144.474 155.093, 141.253 149.376 C 138.508 144.504, 138.505 144.481, 138.003 119.669 C 137.535 96.564, 137.365 94.740, 135.559 93.419 C 134.491 92.639, 132.691 92.081, 131.559 92.180 C 130.426 92.279, 127.250 92.531, 124.500 92.740 M 871.988 100.250 C 867.746 107.205, 866.744 113.461, 867.222 130 C 867.606 143.252, 867.977 146.096, 869.783 149.607 C 873.427 156.693, 878.569 157.365, 885.500 151.661 L 888.500 149.193 888.832 132.251 C 889.149 116.054, 889.046 114.963, 886.481 107.405 C 883.482 98.565, 882.100 97, 877.294 97 C 874.618 97, 873.585 97.633, 871.988 100.250 M 937.282 101.250 C 932.907 108.673, 931.921 115.015, 934.557 118.777 C 936.405 121.416, 937.507 121.490, 944.536 119.446 C 949.095 118.121, 950.036 117.422, 950.939 114.685 C 952.070 111.258, 951.397 107.602, 948.662 102.313 C 945.831 96.838, 940.193 96.312, 937.282 101.250 M 440.712 130.672 C 436.211 132.540, 434 136.904, 434 143.922 C 434 149.427, 435.244 151, 439.596 151 C 445.869 151, 451.292 141.160, 449.505 133.022 C 449.140 131.360, 448.464 130, 448.002 130 C 447.541 130, 446.564 129.797, 445.832 129.550 C 445.099 129.302, 442.796 129.807, 440.712 130.672 M -0 195.003 L -0 200.002 512.250 199.751 L 1024.500 199.500 1024.794 194.500 L 1025.087 189.500 512.544 189.752 L 0 190.004 -0 195.003" stroke="none" fill="#ffffff" fill-rule="evenodd"/></svg>